<?xml version="1.0" encoding="UTF-8"?>
<svg width="24px" height="22px" viewBox="0 0 24 22" version="1.1" xmlns="http://www.w3.org/2000/svg" xmlns:xlink="http://www.w3.org/1999/xlink">
    <title>Combined Shape</title>
    <g id="Page-1" stroke="none" stroke-width="1" fill="none" fill-rule="evenodd">
        <g id="Extra-Large-Copy-3" transform="translate(-334, -2190)" fill="#EC7357" fill-rule="nonzero">
            <g id="Prices" transform="translate(0, 1396)">
                <g id="Group-6" transform="translate(334, 794)">
                    <path d="M16,0 C16.6311826,0 17.1428571,0.488416637 17.1428571,1.09090909 C17.1428571,1.69340155 16.6311826,2.18181818 16,2.18181818 L3.42857143,2.18181818 C2.79738886,2.18181818 2.28571429,2.67023482 2.28571429,3.27272727 L2.28571429,18.5454545 C2.28571429,19.147947 2.79738886,19.6363636 3.42857143,19.6363636 L19.4285714,19.6363636 C20.059754,19.6363636 20.5714286,19.147947 20.5714286,18.5454545 L20.5714286,10.9090909 C20.5714286,10.3065985 21.0831031,9.81818182 21.7142857,9.81818182 C22.3454683,9.81818182 22.8571429,10.3065985 22.8571429,10.9090909 L22.8571429,18.5454545 C22.8571429,20.3529319 21.3221191,21.8181818 19.4285714,21.8181818 L3.42857143,21.8181818 C1.53502371,21.8181818 0,20.3529319 0,18.5454545 L0,3.27272727 C0,1.46524991 1.53502371,0 3.42857143,0 L16,0 Z M23.6652649,1.41042897 C24.1115784,1.83645547 24.1115784,2.5271809 23.6652649,2.9532074 L12.2366935,13.8622983 C11.79038,14.2883248 11.0667629,14.2883248 10.6204494,13.8622983 L7.19187796,10.589571 C6.74556449,10.1635445 6.74556449,9.4728191 7.19187796,9.0467926 C7.63819144,8.6207661 8.36180856,8.6207661 8.80812204,9.0467926 L11.4285714,11.5472727 L22.0490208,1.41042897 C22.4953343,0.984402466 23.2189514,0.984402466 23.6652649,1.41042897 Z" id="Combined-Shape"></path>
                </g>
            </g>
        </g>
    </g>
</svg>