<?xml version="1.0" encoding="UTF-8"?>
<svg width="51px" height="46px" viewBox="0 0 51 46" version="1.1" xmlns="http://www.w3.org/2000/svg" xmlns:xlink="http://www.w3.org/1999/xlink">
    <title>Combined Shape</title>
    <g id="Page-1" stroke="none" stroke-width="1" fill="none" fill-rule="evenodd">
        <g id="Extra-Large-Copy-3" transform="translate(-935, -3876)" fill="#F3F3F3" fill-rule="nonzero">
            <g id="Team" transform="translate(0, 3073)">
                <g id="Group-10" transform="translate(516, 105)">
                    <g id="Group-11" transform="translate(65, 698.5)">
                        <path d="M389.200332,4.0255065 L389.383497,4.189 L389.407712,4.1875593 C389.530968,4.18750368 389.531354,4.20893927 389.501271,4.24952768 L389.484118,4.27140713 C389.554533,4.33171405 389.554533,4.33171405 389.62744,4.39825274 C389.722405,4.48554894 389.853501,4.61012326 390.021078,4.7720235 C390.322724,5.06345004 390.743123,5.47638294 391.267438,5.99565407 C391.731926,6.45567386 392.257662,6.97894928 392.831296,7.55175839 L393.912683,8.63334721 C394.037944,8.75880913 394.1648,8.88592307 394.293145,9.01457926 C395.16951,9.89605866 395.443365,11.2115439 394.986416,12.382473 C394.611983,13.3054872 394.943246,14.3644244 395.776939,14.9095049 C395.92325,15.0051655 396.398509,15.012218 397.07909,14.8594687 C397.328597,14.8034696 397.593781,14.7298839 397.877975,14.6395066 L398.16863,14.5435615 C398.109648,14.5636993 398.469055,14.4274385 398.879096,14.2861433 L399.292393,14.1487761 C399.561016,14.0635539 399.79766,13.9985185 399.89336,13.9985185 C400.447868,13.9985185 400.979501,14.2195634 401.370544,14.6127095 C401.776276,15.0206227 401.774508,15.6802123 401.366595,16.0859441 C400.990059,16.4604657 400.399078,16.4877683 399.991267,16.1689178 L399.908497,16.095 L399.868866,16.1206804 L399.844497,16.132 L391.024029,24.9513311 L391.018497,24.956 L393.237176,27.1745088 C393.432739,27.3714022 393.698779,27.4821283 393.976289,27.4821283 C394.253799,27.4821283 394.519839,27.3714022 394.717895,27.1720072 L402.108402,19.7815091 C402.305295,19.5859463 402.416021,19.3199062 402.416021,19.0423961 C402.416021,18.764886 402.305295,18.498846 402.108402,18.3032831 C401.700201,17.8978407 401.697965,17.2382526 402.103407,16.8300518 C402.508849,16.4218509 403.168437,16.4196147 403.576638,16.8250571 C404.167319,17.4117457 404.499497,18.2098658 404.499497,19.0423961 C404.499497,19.8749264 404.167319,20.6730465 403.57914,21.2572421 L396.193628,28.6427455 C395.606939,29.2334257 394.808819,29.5656041 393.976289,29.5656041 C393.143759,29.5656041 392.345639,29.2334257 391.761443,28.6452471 L389.546602,26.4304011 C389.153456,26.0393574 388.932411,25.5077248 388.932411,24.9532168 C388.932411,24.3987088 389.153456,23.8670762 389.544798,23.4778316 C390.07356,22.949318 390.280198,22.1788601 390.086873,21.4566819 C389.893547,20.7345037 389.32963,20.1703213 388.607543,19.9766567 C387.885456,19.7829921 387.114901,19.9892677 386.586312,20.5176082 L383.681683,23.42553 C383.667106,23.4420685 383.651915,23.4582551 383.63611,23.4740603 L363.413895,43.6962758 C361.374843,45.7353278 358.068886,45.7353278 356.029834,43.6962758 C353.990782,41.6572238 353.990782,38.3512673 356.021462,36.3206838 C363.725417,28.4385518 369.394319,22.6805538 373.029463,19.0454101 C373.436287,18.6385862 374.095879,18.6385862 374.502703,19.0454101 C374.909527,19.452234 374.909527,20.111826 374.502703,20.5186499 L374.106173,20.915521 L373.26636,21.7580586 C369.637261,25.4041911 364.384512,30.744951 357.503074,37.7854551 C356.27767,39.0108592 356.27767,40.9976319 357.503074,42.223036 C358.728478,43.4484401 360.715251,43.4484401 361.940655,42.223036 L381.422497,22.74 L376.245799,17.5632396 C375.838868,17.1563083 375.838991,16.4965043 376.246074,16.0897249 L379.037657,13.3002257 C379.677369,12.6605131 379.300058,11.7525154 377.72167,10.1718356 C375.655913,8.0986926 372.811494,6.99310282 369.883111,7.12715859 C368.970748,7.16471579 368.140246,6.60380042 367.834336,5.74343039 C367.528427,4.88306036 367.818405,3.92375201 368.537724,3.38598302 C374.708189,-1.36849893 383.363362,-1.08017779 389.200332,4.0255065 Z M370.259128,4.70411556 L369.797346,5.0440984 L370.376588,5.03259426 C373.484847,5.03582437 376.48111,6.20041192 378.775023,8.29655774 L379.196757,8.70044567 C381.512604,11.019654 382.320503,12.9638594 380.510621,14.7737405 L378.456271,16.8261537 L382.894075,21.263957 L385.113245,19.0441953 C386.087298,18.0706004 387.472503,17.6449504 388.81326,17.8892089 L389.147259,17.9643005 C390.588292,18.3507871 391.713673,19.4766973 392.099482,20.9179117 L392.100497,20.927 L395.971286,17.0596742 C395.468968,17.0334487 395.024809,16.9070244 394.636796,16.6533357 C392.969411,15.5631747 392.306884,13.4453003 393.050596,11.6122277 C393.202593,11.2226507 393.11046,10.780082 392.816875,10.4847812 C392.487981,10.1550906 392.168813,9.83547953 391.861248,9.52787326 L390.561843,8.23117498 C390.293301,7.96391481 390.039174,7.71154726 389.801336,7.47599752 C389.282628,6.96228 388.867598,6.5546202 388.573438,6.27042559 C388.417224,6.11950375 388.297064,6.00532119 388.217432,5.93211969 L388.194437,5.91082431 L388.204854,5.91082431 L388.073406,5.81281428 C383.12413,1.28022826 375.703432,0.844695378 370.259128,4.70411556 Z" id="Combined-Shape"></path>
                    </g>
                </g>
            </g>
        </g>
    </g>
</svg>