<?xml version="1.0" encoding="UTF-8"?>
<svg width="60px" height="60px" viewBox="0 0 60 60" version="1.1" xmlns="http://www.w3.org/2000/svg" xmlns:xlink="http://www.w3.org/1999/xlink">
    <title>Combined Shape</title>
    <g id="Page-1" stroke="none" stroke-width="1" fill="none" fill-rule="evenodd">
        <g id="Extra-Large-Copy-3" transform="translate(-1333, -758)" fill="#EC7357" fill-rule="nonzero">
            <g id="Hero" transform="translate(52, 32)">
                <g id="Group-2" transform="translate(978, 726)">
                    <path d="M348,0 C349.380712,0 350.5,1.11928813 350.5,2.5 L350.5,5 L353,5 C358.522847,5 363,9.4771525 363,15 L363,50 C363,55.5228475 358.522847,60 353,60 L313,60 C307.477153,60 303,55.5228475 303,50 L303,15 C303,9.4771525 307.477153,5 313,5 L315.5,5 L315.5,2.5 C315.5,1.11928813 316.619288,0 318,0 C319.380712,0 320.5,1.11928813 320.5,2.5 L320.5,5 L345.5,5 L345.5,2.5 C345.5,1.11928813 346.619288,0 348,0 Z M315.5,10 L313,10 C310.238576,10 308,12.2385763 308,15 L308,50 C308,52.7614237 310.238576,55 313,55 L353,55 C355.761424,55 358,52.7614237 358,50 L358,15 C358,12.2385763 355.761424,10 353,10 L350.5,10 L350.5,12.5 C350.5,13.8807119 349.380712,15 348,15 C346.619288,15 345.5,13.8807119 345.5,12.5 L345.5,10 L320.5,10 L320.5,12.5 C320.5,13.8807119 319.380712,15 318,15 C316.619288,15 315.5,13.8807119 315.5,12.5 L315.5,10 Z M320.5,42.5 C321.880712,42.5 323,43.6192881 323,45 C323,46.3807119 321.880712,47.5 320.5,47.5 L315.5,47.5 C314.119288,47.5 313,46.3807119 313,45 C313,43.6192881 314.119288,42.5 315.5,42.5 Z M335.5,42.5 C336.880712,42.5 338,43.6192881 338,45 C338,46.3807119 336.880712,47.5 335.5,47.5 L330.5,47.5 C329.119288,47.5 328,46.3807119 328,45 C328,43.6192881 329.119288,42.5 330.5,42.5 Z M350.5,42.5 C351.880712,42.5 353,43.6192881 353,45 C353,46.3807119 351.880712,47.5 350.5,47.5 L345.5,47.5 C344.119288,47.5 343,46.3807119 343,45 C343,43.6192881 344.119288,42.5 345.5,42.5 Z M320.5,30 C321.880712,30 323,31.1192881 323,32.5 C323,33.8807119 321.880712,35 320.5,35 L315.5,35 C314.119288,35 313,33.8807119 313,32.5 C313,31.1192881 314.119288,30 315.5,30 Z M335.5,30 C336.880712,30 338,31.1192881 338,32.5 C338,33.8807119 336.880712,35 335.5,35 L330.5,35 C329.119288,35 328,33.8807119 328,32.5 C328,31.1192881 329.119288,30 330.5,30 Z M350.5,30 C351.880712,30 353,31.1192881 353,32.5 C353,33.8807119 351.880712,35 350.5,35 L345.5,35 C344.119288,35 343,33.8807119 343,32.5 C343,31.1192881 344.119288,30 345.5,30 Z M350.5,17.5 C351.880712,17.5 353,18.6192881 353,20 C353,21.3807119 351.880712,22.5 350.5,22.5 L315.5,22.5 C314.119288,22.5 313,21.3807119 313,20 C313,18.6192881 314.119288,17.5 315.5,17.5 Z" id="Combined-Shape"></path>
                </g>
            </g>
        </g>
    </g>
</svg>