<?xml version="1.0" encoding="UTF-8"?>
<svg width="51px" height="61px" viewBox="0 0 51 61" version="1.1" xmlns="http://www.w3.org/2000/svg" xmlns:xlink="http://www.w3.org/1999/xlink">
    <title>Shape</title>
    <g id="Page-1" stroke="none" stroke-width="1" fill="none" fill-rule="evenodd">
        <g id="Extra-Large-Copy-3" transform="translate(-555, -758)" fill="#EC7357" fill-rule="nonzero">
            <g id="Hero" transform="translate(52, 32)">
                <g id="Group-3" transform="translate(188, 726)">
                    <path d="M352,25.5 C352,19.1487254 346.851275,14 340.5,14 C334.148725,14 329,19.1487254 329,25.5 C329,31.8512746 334.148725,37 340.5,37 C346.851275,37 352,31.8512746 352,25.5 L352,25.5 Z M322.468414,7.51776877 C332.426299,-2.50592282 348.571221,-2.50592294 358.529107,7.5177685 C363.312519,12.3305314 366,18.8593952 366,25.6672678 C366,32.4751405 363.312519,39.0040042 358.529107,43.8167671 L342.144203,60.3099497 C341.709049,60.7515859 341.1167,61 340.49876,61 C339.880821,61 339.288471,60.7515859 338.853317,60.3099497 C338.414581,59.8719201 338.167797,59.2756558 338.167797,58.6536329 C338.167797,58.0316101 338.414581,57.4353457 338.853317,56.9973161 L355.238221,40.5041336 C361.208871,34.5015013 362.998128,25.4688855 359.77127,17.620173 C356.544412,9.77146049 348.937286,4.65322789 340.49876,4.65322789 C332.060235,4.65322789 324.453109,9.77146049 321.226251,17.620173 C317.999392,25.4688855 319.78865,34.5015013 325.7593,40.5041336 L335.261153,50.0687798 C335.849013,50.6605247 336.078599,51.5230119 335.863427,52.3313506 C335.648255,53.1396893 335.021016,53.7710737 334.217984,53.9876674 C333.414952,54.204261 332.558127,53.9731583 331.970267,53.3814133 L322.468414,43.8167671 C312.510529,33.7930754 312.510529,17.5414604 322.468414,7.51776877 Z M341,19 C344.865993,19 348,22.1340068 348,26 C348,29.8659932 344.865993,33 341,33 C337.134007,33 334,29.8659932 334,26 C334,22.1340068 337.134007,19 341,19 Z" id="Shape"></path>
                </g>
            </g>
        </g>
    </g>
</svg>