<svg xmlns="http://www.w3.org/2000/svg" viewBox="0 0 374.27 374.27"><g id="Calque_2" data-name="Calque 2"><g id="Layer_1" data-name="Layer 1"><path d="M95.3,173.91a4.69,4.69,0,0,0-2.62-.93,5.53,5.53,0,0,0-3.9,1.38,9.6,9.6,0,0,0-2.4,3.55,23.3,23.3,0,0,0-1.33,4.48L75.46,238.5H70.84l9.77-56.73a21.54,21.54,0,0,1,2.08-6.61,13.18,13.18,0,0,1,4.22-4.93,10.67,10.67,0,0,1,6.48-1.78,7.7,7.7,0,0,1,4.17,1.25,12.06,12.06,0,0,1,2.84,2.66L97.3,176A10,10,0,0,0,95.3,173.91Zm-2.53,23.75L92,202H73.24l.8-4.35Z"/><path d="M99,238.5H94.37l7.1-40.84h4.62Zm17.09-36.84a5.7,5.7,0,0,0-2.53-.54,7.09,7.09,0,0,0-5.19,1.82,13.84,13.84,0,0,0-3.33,4.8,26.36,26.36,0,0,0-1.77,5.81h-2.14a29.72,29.72,0,0,1,2.58-7.9,20.41,20.41,0,0,1,4.7-6.35,9.75,9.75,0,0,1,6.66-2.53,8.21,8.21,0,0,1,3.42.71,14,14,0,0,1,3,1.87l-3.1,3.64A15.52,15.52,0,0,0,116.07,201.66Z"/><path d="M134.76,197.66l-7,40.84h-4.53l6.83-40.84Zm-1.55-20.82a3.18,3.18,0,0,1,2.35-.93,3.25,3.25,0,0,1,2.31.93,3.14,3.14,0,0,1,1,2.36,3,3,0,0,1-1,2.26,3.25,3.25,0,0,1-2.31.93,3.18,3.18,0,0,1-2.35-.93,3.06,3.06,0,0,1-.94-2.26A3.19,3.19,0,0,1,133.21,176.84Z"/><path d="M150,237.12a15.16,15.16,0,0,1-5.72-6.44,22.18,22.18,0,0,1-2-9.85,23.81,23.81,0,0,1,1.74-9,25,25,0,0,1,4.83-7.68,24.18,24.18,0,0,1,7.19-5.37,19.61,19.61,0,0,1,8.7-2A15.68,15.68,0,0,1,173,199a14.92,14.92,0,0,1,5.55,6.08,20,20,0,0,1,2,9.23,12.27,12.27,0,0,1-.32,2.66,14.92,14.92,0,0,1-.66,2.31H145.32v-4h31.34L174.71,218c.23-.59.48-1.29.75-2.09a7.84,7.84,0,0,0,.4-2.53,14.68,14.68,0,0,0-1.38-6.48,10.54,10.54,0,0,0-3.9-4.44,11.39,11.39,0,0,0-6.17-1.59,14.68,14.68,0,0,0-6.84,1.64,19.1,19.1,0,0,0-5.63,4.39,20,20,0,0,0-3.78,6.31,20.93,20.93,0,0,0-1.33,7.36,19.33,19.33,0,0,0,1.38,7.55,11,11,0,0,0,4.13,5.1A11.72,11.72,0,0,0,159,235a16.41,16.41,0,0,0,8.53-2.26,21.23,21.23,0,0,0,6.56-6.17l3.64,2.4a26.62,26.62,0,0,1-8.3,7.59,21.53,21.53,0,0,1-11,2.79A15.86,15.86,0,0,1,150,237.12Z"/><path d="M216.47,206.76a7.19,7.19,0,0,0-2.17-4.08,7.09,7.09,0,0,0-5-1.56,12.78,12.78,0,0,0-6.39,1.65,14.43,14.43,0,0,0-4.84,4.34,14.11,14.11,0,0,0-2.44,6l-4.53,25.39h-4.62l7.1-40.84h4.62l-1.33,8.08a17.48,17.48,0,0,1,5.59-6.48,14,14,0,0,1,8.26-2.49,9.42,9.42,0,0,1,10.07,7.55,20.74,20.74,0,0,1,.4,7.37l-4.7,26.81h-4.44l4.53-26.28A17.64,17.64,0,0,0,216.47,206.76Z"/><path d="M234.18,207.29a24.61,24.61,0,0,1,8.08-7.72,19.83,19.83,0,0,1,10.57-2.8,12.09,12.09,0,0,1,6.88,1.87,13.4,13.4,0,0,1,4.43,4.92,19.5,19.5,0,0,1,2.13,6.84,28.64,28.64,0,0,1,0,7.68,30,30,0,0,1-2.35,8,26.61,26.61,0,0,1-4.4,6.79,20.5,20.5,0,0,1-6.08,4.7,16.3,16.3,0,0,1-7.5,1.74,14.68,14.68,0,0,1-9.5-2.89,16.36,16.36,0,0,1-5.46-7.81,22.66,22.66,0,0,1-.84-10.52A26.38,26.38,0,0,1,234.18,207.29Zm1.11,19.18a12.3,12.3,0,0,0,4.13,6.17,11.67,11.67,0,0,0,7.46,2.3,13.47,13.47,0,0,0,6-1.37,19.19,19.19,0,0,0,5.19-3.73,22.09,22.09,0,0,0,4-5.41,21.25,21.25,0,0,0,2.13-6.35A18.76,18.76,0,0,0,264,212a16.46,16.46,0,0,0-1.95-5.42,11.16,11.16,0,0,0-3.73-3.9,10.31,10.31,0,0,0-5.33-1.56,15.55,15.55,0,0,0-8.47,2.22,20,20,0,0,0-6.44,6.17,21.78,21.78,0,0,0-3.37,8.57A19.12,19.12,0,0,0,235.29,226.47ZM277,169.25,265.08,238.5h-4.44l11.72-69.25Z"/><path d="M283.1,230.73a10.34,10.34,0,0,0,3.46,3.24,10,10,0,0,0,5.15,1.24,9.41,9.41,0,0,0,6.26-2.13,7.6,7.6,0,0,0,2.79-5.41,5.93,5.93,0,0,0-1.15-3.95,10.7,10.7,0,0,0-3.24-2.8,25.71,25.71,0,0,0-4.22-1.95,40.1,40.1,0,0,1-4.88-2.31,10.83,10.83,0,0,1-3.82-3.46,9.12,9.12,0,0,1-1.24-5.6,9.86,9.86,0,0,1,2.09-5.9,12.37,12.37,0,0,1,4.79-3.6,15.12,15.12,0,0,1,6-1.24,12.91,12.91,0,0,1,8,2.4,14.67,14.67,0,0,1,4.66,5.86l-3.47,2.22a15.17,15.17,0,0,0-3.68-4.57,8.68,8.68,0,0,0-5.82-1.91,9.26,9.26,0,0,0-5.59,1.68,6.1,6.1,0,0,0-2.57,4.53,5.68,5.68,0,0,0,.89,3.82,8,8,0,0,0,2.93,2.48,37.28,37.28,0,0,0,4.17,1.87,36.21,36.21,0,0,1,5.37,2.62,11.78,11.78,0,0,1,3.9,3.68,9,9,0,0,1,1.29,5.59,12.17,12.17,0,0,1-2,6.22,13.2,13.2,0,0,1-4.88,4.39,15.93,15.93,0,0,1-14,0,13.68,13.68,0,0,1-4.7-4.13,16.27,16.27,0,0,1-2.49-5.19l3.82-2.05A18.61,18.61,0,0,0,283.1,230.73Z"/><path d="M178.63,140.44a22.29,22.29,0,0,1-2.36-4.8,11.46,11.46,0,0,1-.44-5.55,14.33,14.33,0,0,1,2.71-6.65,15.1,15.1,0,0,1,5.63-4.62,17.29,17.29,0,0,1,7.64-1.69,12.34,12.34,0,0,1,6.83,2,10.69,10.69,0,0,1,4,4.88,12.33,12.33,0,0,1,.8,6.39,14.73,14.73,0,0,1-2.75,6.3,24.89,24.89,0,0,1-5.37,5.2,80.22,80.22,0,0,1-7,4.48c-1.78,1-3.73,2-5.86,3.11a57.16,57.16,0,0,0-6.13,3.55,20.81,20.81,0,0,0-5,4.66,12.74,12.74,0,0,0-2.53,6.43,10.15,10.15,0,0,0,5.23,11.1,14,14,0,0,0,6.84,1.6,20.78,20.78,0,0,0,9.72-2.18,37.58,37.58,0,0,0,8.66-6,95.83,95.83,0,0,0,7.81-8q3.72-4.31,7.1-8.3l3.37,2.22q-3.81,4.35-7.85,9a101.67,101.67,0,0,1-8.53,8.7,39.92,39.92,0,0,1-9.63,6.48,25.18,25.18,0,0,1-11.27,2.35,18.88,18.88,0,0,1-8.88-2.09,14.34,14.34,0,0,1-6.08-5.86,13.64,13.64,0,0,1-1.38-8.74,17,17,0,0,1,2-6.44,19.84,19.84,0,0,1,4-4.92,35.14,35.14,0,0,1,5.06-3.82c1.8-1.12,3.61-2.13,5.41-3s3.48-1.74,5-2.57a68.58,68.58,0,0,0,6-3.77,26,26,0,0,0,4.84-4.35,11,11,0,0,0,2.53-5.11,9.71,9.71,0,0,0-.44-4.35,7,7,0,0,0-2.44-3.33,7.7,7.7,0,0,0-4.49-1.37,11.49,11.49,0,0,0-5.23,1.15,10.48,10.48,0,0,0-3.82,3.19,9.93,9.93,0,0,0-1.87,4.53,9.3,9.3,0,0,0,.32,4.35,16.48,16.48,0,0,0,1.86,3.91q1.2,1.86,2.44,3.73l26.46,38.08h-5.24l-25-35.6Q180.09,142.7,178.63,140.44Z"/><path d="M187.13,374.27C84,374.27,0,290.32,0,187.13S84,0,187.13,0,374.27,84,374.27,187.13,290.32,374.27,187.13,374.27Zm0-365.94c-98.59,0-178.8,80.21-178.8,178.8s80.21,178.81,178.8,178.81,178.81-80.21,178.81-178.81S285.73,8.33,187.13,8.33Z"/></g></g></svg>