<?xml version="1.0" encoding="UTF-8"?>
<svg width="150px" height="150px" viewBox="0 0 150 150" version="1.1" xmlns="http://www.w3.org/2000/svg" xmlns:xlink="http://www.w3.org/1999/xlink">
    <title>Artboard</title>
    <g id="Artboard" stroke="none" stroke-width="1" fill="none" fill-rule="evenodd">
        <g id="logo-&amp;friends" transform="translate(25, 25)" fill="#000000" fill-rule="nonzero">
            <path d="M25.7922869,46.4845881 C25.6124873,46.3306472 25.3961699,46.2427177 25.1718539,46.2323922 C24.8333198,46.2156066 24.502283,46.3497448 24.2483085,46.6066184 C23.9979432,46.8743772 23.8036584,47.2034692 23.6799729,47.5693016 C23.5397007,47.9611511 23.4341859,48.3681575 23.3650203,48.7841808 L21.094046,64 L20,64 L22.3135995,48.6160502 C22.3922322,47.9920282 22.55857,47.3867005 22.806157,46.8235611 C23.0367572,46.2895121 23.3802775,45.8299457 23.8054804,45.4866516 C24.2582308,45.1406847 24.7964353,44.9713859 25.3399865,45.0039541 C25.6907679,45.0058206 26.0336338,45.1235161 26.3274696,45.3429271 C26.584265,45.540099 26.8113976,45.7837141 27,46.0642616 L26.2658999,47.0513509 C26.1328512,46.8371418 25.9733113,46.6462238 25.7922869,46.4845881 L25.7922869,46.4845881 Z M25.1931664,52.9250747 L25.0108254,54.1019889 L20.5683356,54.1019889 L20.7577808,52.922363 L25.1931664,52.9250747 Z" id="Shape"></path>
            <path d="M26.195059,64 L25,64 L26.8325959,53.2347549 L28.0250737,53.2347549 L26.195059,64 Z M30.6061947,54.2891374 C30.4020796,54.1912045 30.1786512,54.1425031 29.9531711,54.1467957 C29.4616186,54.1161189 28.9787051,54.2890619 28.6135693,54.6265397 C28.2421744,54.9810323 27.9491427,55.4123938 27.754056,55.8917987 C27.5444977,56.3826136 27.3911942,56.8965209 27.2971976,57.4232893 L26.7448378,57.4232893 C26.8702178,56.7007285 27.0943853,55.9997417 27.410767,55.3408839 C27.7045381,54.7075778 28.1166321,54.1389841 28.6238938,53.6670517 C29.0940123,53.2312597 29.7080517,52.9930429 30.3429204,53.0001548 C30.6469068,52.9971537 30.9479672,53.0609823 31.2256637,53.1873077 C31.5031335,53.317542 31.7633193,53.48317 32,53.6802315 L31.1998525,54.6397195 C31.0104944,54.5054817 30.8101442,54.3881856 30.6010324,54.2891374 L30.6061947,54.2891374 Z" id="Shape"></path>
            <path d="M36.6859187,52.907779 L34.4481537,64 L33,64 L35.1834193,52.907779 L36.6859187,52.907779 Z M36.1904136,47.2530277 C36.3890054,47.0842719 36.660928,46.9928444 36.9416632,47.000438 C37.2175266,46.9979977 37.483206,47.0888728 37.6801257,47.2530277 C37.8891476,47.4183289 38.0054096,47.6514417 37.9998064,47.8940082 C38.001997,48.1281342 37.8855384,48.3517469 37.6801257,48.5078284 C37.483206,48.6719834 37.2175266,48.7628585 36.9416632,48.7604182 C36.660928,48.7680118 36.3890054,48.6765843 36.1904136,48.5078284 C35.9940962,48.3476508 35.8852053,48.1252233 35.8899137,47.8940082 C35.8813098,47.6542163 35.9901161,47.4221271 36.1904136,47.2530277 L36.1904136,47.2530277 Z" id="Shape"></path>
            <path d="M40.0187616,63.4229098 C39.3685797,63.0228375 38.849611,62.4448774 38.524707,61.7590254 C38.1559954,60.9614372 37.9772748,60.0907792 38.0023103,59.214109 C38.0001126,58.4172057 38.1544677,57.6274713 38.4567954,56.8888047 C38.7514591,56.1568104 39.1790277,55.484319 39.7183835,54.904545 C40.2513839,54.3302059 40.8883573,53.8596258 41.5963996,53.5171134 C42.30364,53.17435 43.0812618,52.9975241 43.8688253,53.0003792 C44.6278311,52.9901083 45.3747893,53.1886886 46.0263237,53.5739542 C46.6489079,53.952744 47.1512482,54.4970906 47.4759746,55.1448265 C47.8400694,55.8870869 48.0191954,56.7047928 47.9983713,57.5295552 C47.9959542,57.7609718 47.967926,57.9914308 47.9147878,58.2168118 C47.8736365,58.4200148 47.815986,58.6196044 47.7423969,58.8136399 L38.7963533,58.8136399 L38.7963533,57.7801713 L46.9823097,57.7801713 L46.4729729,58.48293 C46.5330485,58.3304933 46.5983481,58.1496363 46.6688717,57.9429426 C46.7396896,57.7321918 46.7749871,57.5113555 46.773351,57.2892738 C46.7837465,56.7113225 46.6604557,56.1386668 46.4128973,55.6150547 C46.1908772,55.1444077 45.8374245,54.7463771 45.3942237,54.4679045 C44.9074734,54.182106 44.3483978,54.0395947 43.7826299,54.0571008 C43.1611835,54.0530423 42.5480521,54.1984569 41.9960331,54.4808229 C41.438139,54.7641164 40.9392432,55.1489144 40.5254864,55.6150547 C40.0973115,56.0934348 39.7625409,56.6462139 39.5381566,57.2453513 C39.3078751,57.8534393 39.1901987,58.4975824 39.1907628,59.1469335 C39.1778923,59.8144532 39.3004592,60.4777498 39.5512165,61.0976055 C39.7668832,61.6351699 40.1432183,62.0948563 40.6299657,62.4152779 C41.1501036,62.7376137 41.7561888,62.8978447 42.3695468,62.8751714 C43.1521881,62.8854089 43.9227229,62.6834706 44.5975687,62.2912617 C45.2774002,61.8872074 45.8616981,61.3436036 46.3110299,60.6971364 L47.261792,61.3172175 C46.6885872,62.1161568 45.9494431,62.7847465 45.0938456,63.2782242 C44.2185236,63.7683442 43.2263282,64.0172733 42.2206637,63.9990685 C41.4466902,64.0142921 40.6838888,63.8146944 40.0187616,63.4229098 L40.0187616,63.4229098 Z" id="Path"></path>
            <path d="M57.74025,55.640784 C57.6745217,55.2294779 57.4776611,54.8517845 57.1801853,54.5662534 C56.817186,54.2662469 56.3554934,54.119257 55.8897134,54.1554035 C55.3121695,54.1504163 54.7434661,54.3002636 54.2404904,54.5899563 C53.7443187,54.8690427 53.3170858,55.2599638 52.9913137,55.7329619 C52.6641565,56.2027364 52.4485598,56.7437194 52.3615634,57.313154 L51.192396,64 L50,64 L51.83247,53.2441594 L53.024866,53.2441594 L52.6816005,55.3721514 C53.0165115,54.6900852 53.512285,54.1036411 54.124348,53.665544 C54.7496021,53.223408 55.4956555,52.993915 56.2562074,53.0097643 C57.4930257,52.8981105 58.6135639,53.7553936 58.8552177,54.9981726 C59.0030825,55.6336709 59.0380487,56.2910797 58.9584554,56.9391752 L57.7454119,64 L56.5994729,64 L57.7686404,57.0787588 C57.8323865,56.6008362 57.8228083,56.1156989 57.74025,55.640784 L57.74025,55.640784 Z" id="Path"></path>
            <path d="M62.1895582,55.3136304 C62.7593126,54.4571744 63.5218343,53.7410149 64.4181516,53.2205382 C65.298361,52.7039087 66.3085623,52.4408562 67.3335269,52.4613856 C68.0035302,52.4390413 68.6648291,52.6157275 69.2311411,52.9683911 C69.7455205,53.3055785 70.1656307,53.764223 70.453006,54.3023307 C70.7636626,54.8795294 70.9628529,55.5083055 71.0404942,56.1568321 C71.1355947,56.8477667 71.1355947,57.5481446 71.0404942,58.2390792 C70.9282014,58.9882149 70.7100389,59.7182669 70.3923265,60.4080867 C70.0856223,61.0789557 69.6763624,61.6997788 69.1787361,62.2490318 C68.7064635,62.7739107 68.1374809,63.2062701 67.5017747,63.5233236 C66.8604509,63.8406979 66.1511248,64.0024632 65.4331546,63.9950828 C64.4936619,64.0410189 63.5672118,63.7639755 62.8129024,63.2115288 C62.1082848,62.6682303 61.5840568,61.9311239 61.306947,61.0940353 C61.0024291,60.1744622 60.923048,59.1972125 61.0752615,58.2417905 C61.2224836,57.1969057 61.6030051,56.1969674 62.1895582,55.3136304 L62.1895582,55.3136304 Z M62.495714,60.5138258 C62.6910597,61.1734715 63.0888964,61.7577117 63.6348342,62.1866728 C64.2275369,62.620558 64.9540717,62.8407477 65.6924216,62.8102624 C66.2658223,62.8136441 66.8322372,62.6865119 67.3473177,62.4388199 C67.8786336,62.1827485 68.3625049,61.8409086 68.7788028,61.4275202 C69.2205916,60.9968338 69.592661,60.502167 69.8820669,59.9607289 C70.1692481,59.4209812 70.36754,58.8398817 70.469555,58.2390792 C70.5425244,57.6903066 70.5238918,57.133506 70.4143918,56.5906336 C70.3243732,56.0735315 70.1423055,55.576082 69.8765506,55.121131 C69.626782,54.6912429 69.273523,54.3281644 68.8477568,54.0637399 C68.4063038,53.7932294 67.897822,53.6469361 67.3776575,53.6407834 C66.5563616,53.6173077 65.7454896,53.8262245 65.0414958,54.242683 C64.3288657,54.661766 63.7216856,55.233598 63.2652407,55.91553 C62.790476,56.6160714 62.47356,57.4082931 62.3357407,58.2390792 C62.2166574,58.9996016 62.2713036,59.7766453 62.495714,60.5138258 L62.495714,60.5138258 Z M74,45 L70.7122731,63.7754708 L69.48765,63.7754708 L72.7202137,45 L74,45 Z" id="Shape"></path>
            <path d="M75.5660685,61.7667608 C75.7975545,62.1117864 76.1067106,62.398793 76.469168,62.6051579 C76.8799975,62.8299621 77.3443599,62.9408072 77.8133768,62.9260259 C78.4073426,62.9443142 78.9878545,62.7484921 79.4473083,62.3748575 C79.8761746,62.0291781 80.1401167,61.5217822 80.1755302,60.9749414 C80.2017117,60.6096404 80.0952458,60.2471013 79.875367,59.9528215 C79.6456002,59.6572815 79.3579482,59.4108333 79.02969,59.2282808 C78.6786571,59.0274535 78.3099944,58.8585664 77.9282219,58.72369 C77.49058,58.5530366 77.0650372,58.3533354 76.6544861,58.1259439 C76.2542993,57.9113965 75.9122594,57.6042577 75.6574225,57.2306187 C75.3951495,56.7946697 75.2816497,56.2865023 75.3337684,55.7815373 C75.3435242,55.2274024 75.5350146,54.6914849 75.8792822,54.2548266 C76.2127263,53.8474223 76.64207,53.52752 77.1295269,53.3232743 C77.6239927,53.111486 78.1569555,53.0022885 78.6955954,53.0024063 C79.4418095,52.9743194 80.1762957,53.1927684 80.7836868,53.6234411 C81.314592,54.016091 81.7336784,54.5385599 82,55.1398013 L81.0942904,55.7142585 C80.8547937,55.2618594 80.5285178,54.8601624 80.1337684,54.5317046 C79.7048147,54.1894168 79.164802,54.0137218 78.6146819,54.0374644 C78.093776,54.0226445 77.5819894,54.1751311 77.1556281,54.4721888 C76.7665548,54.743896 76.5204802,55.1739045 76.4848287,55.6443921 C76.4414118,55.990779 76.5237583,56.3411785 76.7171289,56.6328726 C76.9157385,56.9051463 77.1782153,57.1253985 77.4818923,57.2746086 C77.834375,57.4578206 78.1978637,57.6194207 78.57031,57.7584983 C79.0555618,57.9458192 79.5243679,58.1725787 79.9719413,58.4364614 C80.3805832,58.6720792 80.7289214,58.9979381 80.9898858,59.3887148 C81.2582746,59.8215575 81.3765193,60.3295403 81.3265905,60.8352085 C81.303817,61.4088572 81.1233037,61.9654209 80.8045677,62.4447239 C80.4832433,62.9236692 80.0451188,63.3144088 79.530832,63.5807002 C78.3780481,64.1397666 77.0294559,64.1397666 75.8766721,63.5807002 C75.3899701,63.3232031 74.9700709,62.9574041 74.6499184,62.5120027 C74.3544857,62.1061944 74.1344023,61.6514153 74,61.1690148 L74.9970636,60.6385475 C75.1360157,61.0377251 75.3273248,61.4170495 75.5660685,61.7667608 Z" id="Path"></path>
            <path d="M47.1593784,37.1940191 C46.8872532,36.7955903 46.6664361,36.3673677 46.5016955,35.9185981 C46.3343081,35.4441131 46.2921923,34.9375981 46.3790766,34.4438926 C46.4694488,33.803327 46.7293492,33.1952379 47.1342973,32.6769031 C47.5444054,32.1517794 48.08306,31.7303239 48.7032613,31.4493105 C49.3676497,31.1464625 50.0960023,30.9928443 50.8323705,31.000256 C51.5077987,30.9953261 52.1697944,31.180156 52.7357496,31.5316814 C53.235693,31.8471207 53.6241931,32.2990377 53.8504665,32.8283594 C54.0812192,33.3655035 54.1581579,33.9514579 54.0734098,34.5262635 C53.9599937,35.1340798 53.6973876,35.7076948 53.307042,36.2002536 C52.883999,36.7300246 52.3794748,37.1958452 51.8105346,37.5819596 C51.1822917,38.0106283 50.5311666,38.407959 49.8597801,38.7723525 C49.363731,39.0380652 48.8203066,39.3037779 48.2267198,39.598719 C47.6373794,39.8791681 47.0668495,40.1941996 46.5184162,40.5419991 C45.9855512,40.8786955 45.5147369,41.2970777 45.1250201,41.7802203 C44.7294149,42.2769277 44.4854203,42.8681875 44.4199617,43.4887529 C44.1569958,44.672301 44.7528078,45.8779982 45.877454,46.4381639 C46.4646231,46.7320338 47.1206628,46.8783531 47.7836199,46.8633042 C48.7224423,46.8824779 49.6520726,46.6836816 50.4923819,46.2840505 C51.3713595,45.8633114 52.1837953,45.3266132 52.9057439,44.6897743 C53.6740076,44.0221967 54.400739,43.3124219 55.0822286,42.5640727 C55.7733531,41.8005916 56.4328939,41.0654531 57.060851,40.3586573 L58,40.9485395 C57.2921548,41.7191063 56.5629442,42.5162445 55.8123681,43.3399538 C55.0691715,44.1551383 54.2753685,44.9270909 53.4352344,45.6516543 C52.6334305,46.3471917 51.7293154,46.9272614 50.7515536,47.3734726 C49.7692688,47.8100725 48.6942698,48.0237997 47.6108388,47.9978975 C46.7507397,48.008441 45.9010462,47.8177618 45.1361673,47.4425579 C44.4202715,47.097445 43.8298786,46.554891 43.4417977,45.8854815 C43.0465153,45.1736246 42.9111999,44.3565015 43.0572204,43.5631525 C43.1213016,42.9629924 43.3108156,42.3811507 43.6145788,41.8519627 C43.910242,41.3620314 44.2866201,40.9206265 44.7292957,40.5446562 C45.1662975,40.1664942 45.6382568,39.826771 46.1394125,39.5296337 C46.6410351,39.2320355 47.1454445,38.9636656 47.6470671,38.7324956 C48.1486897,38.5013255 48.6168707,38.2701555 49.0404632,38.049614 C49.615554,37.7433982 50.1736573,37.4090397 50.7125385,37.0478771 C51.2111354,36.7179734 51.6642864,36.3296491 52.0613459,35.8920268 C52.4174484,35.5063853 52.6606385,35.0380531 52.7664043,34.5342349 C52.818221,34.1450735 52.7762851,33.74977 52.6437854,33.3783847 C52.515569,33.0249744 52.2786025,32.7166208 51.9638081,32.4935614 C51.5966246,32.2509969 51.1592004,32.123739 50.7125385,32.129535 C50.2082474,32.1205196 49.7088553,32.2252193 49.2550462,32.4351046 C48.8339605,32.6320451 48.4688136,32.9227837 48.1904915,33.2827281 C47.9140378,33.6361395 47.7348714,34.0499685 47.6693614,34.4864066 C47.602568,34.8729828 47.6331344,35.2691616 47.7585388,35.6422569 C47.8826462,36.0087978 48.0569312,36.3581243 48.2768821,36.6811935 C48.4998255,37.0106773 48.7264846,37.3410467 48.9568594,37.6723019 L56.3307115,47.7906416 L54.8704324,47.7906416 L47.9034519,38.3312694 C47.6786507,37.973443 47.4306262,37.5943595 47.1593784,37.1940191 Z" id="Path"></path>
            <path d="M49.9986641,100 C22.4436904,100 0,77.569669 0,49.9986641 C0,22.4276592 22.4436904,0 49.9986641,0 C77.5536377,0 100,22.4436904 100,49.9986641 C100,77.5536377 77.569669,100 49.9986641,100 Z M49.9986641,2.22566596 C23.6567184,2.22566596 2.22566596,23.6567184 2.22566596,49.9986641 C2.22566596,76.3406097 23.6567184,97.774334 49.9986641,97.774334 C76.3406097,97.774334 97.774334,76.3432816 97.774334,49.9986641 C97.774334,23.6540465 76.3432816,2.22566596 49.9986641,2.22566596 Z" id="Shape"></path>
        </g>
    </g>
</svg>