<?xml version="1.0" encoding="UTF-8"?>
<svg width="515px" height="87px" viewBox="0 0 515 87" version="1.1" xmlns="http://www.w3.org/2000/svg" xmlns:xlink="http://www.w3.org/1999/xlink">
    <title>libeo-logo</title>
    <g id="Page-1" stroke="none" stroke-width="1" fill="none" fill-rule="evenodd">
        <g id="libeo-logo" fill="#0D0D21" fill-rule="nonzero">
            <path d="M468.513,86.0305357 C444.481,85.9160223 423.296,68.4670223 423.414501,42.8030223 C423.537,17.1440223 444.885,-0.107977734 468.917,0.000508726018 C492.953,0.114022266 514.129,17.5640223 514.011491,43.2240223 C513.889,68.8830223 492.549,86.1390223 468.513,86.0305357 Z M468.819,20.9417487 C456.487,20.8850223 445.529,29.7410223 445.467745,42.9080223 C445.407,56.0750223 456.279,65.0330223 468.611,65.0892958 C480.943,65.1460223 491.896,56.2900223 491.962255,43.1230223 C492.023,29.9550223 481.151,20.9980223 468.819,20.9417487 Z M310.589,2.33502227 C310.589,2.33502227 387.609,2.33502227 387.609,2.33502227 C387.609,2.33502227 387.609,21.5580223 387.609,21.5580223 C387.609,21.5580223 310.589,21.5580223 310.589,21.5580223 C310.589,21.5580223 310.589,2.33502227 310.589,2.33502227 Z M370.153,51.5820223 C370.153,51.5820223 331.818,51.5820223 331.818,51.5820223 C331.818,51.5820223 331.818,64.3810223 331.818,64.3810223 C331.818,64.3810223 387.609,64.3810223 387.609,64.3810223 C387.609,64.3810223 387.609,83.8270223 387.609,83.8270223 C387.609,83.8270223 310.589,83.8270223 310.589,83.8270223 C310.589,83.8270223 310.589,32.7950223 310.589,32.7950223 C310.589,32.7950223 370.153,32.7950223 370.153,32.7950223 C370.153,32.7950223 370.153,51.5820223 370.153,51.5820223 Z M244.597,83.6070223 C244.597,83.6070223 188.561,83.6070223 188.561,83.6070223 C188.561,83.6070223 188.561,2.27702227 188.561,2.27702227 C188.561,2.27702227 240.407,2.27702227 240.407,2.27702227 C254.848,2.27702227 265.39,11.1010223 265.39,24.7810223 C265.39,29.9240223 263.513,34.9260223 259.76,37.5770223 C266.691,41.6890223 270.734,47.7220223 270.734,58.0160223 C270.734,72.2820223 259.181,83.6070223 244.597,83.6070223 Z M239.554,21.6340223 C239.554,21.6340223 209.509,21.6340223 209.509,21.6340223 C209.509,21.6340223 209.509,32.6270223 209.509,32.6270223 C209.509,32.6270223 240.285,32.6270223 240.285,32.6270223 C242.475,32.6270223 244.662,29.8070223 244.662,27.1330223 C244.662,25.0520223 243.348,21.6340223 239.554,21.6340223 Z M243.467,51.3370223 C243.467,51.3370223 209.481,51.3370223 209.481,51.3370223 C209.481,51.3370223 209.481,64.1090223 209.481,64.1090223 C209.481,64.1090223 244.05,64.1130223 244.05,64.1130223 C247.407,64.1130223 250.031,61.7290223 250.031,57.8710223 C250.031,54.1580223 247.261,51.3370223 243.467,51.3370223 Z M118.035,2.27802227 C118.035,2.27802227 140.195,2.27802227 140.195,2.27802227 C140.195,2.27802227 140.195,83.6080223 140.195,83.6080223 C140.195,83.6080223 118.035,83.6080223 118.035,83.6080223 C118.035,83.6080223 118.035,2.27802227 118.035,2.27802227 Z M0,2.27402227 C0,2.27402227 21.234,2.27402227 21.234,2.27402227 C21.234,2.27402227 21.234,64.1580223 21.234,64.1580223 C21.234,64.1580223 75.539,64.1580223 75.539,64.1580223 C75.539,64.1580223 75.539,83.6040223 75.539,83.6040223 C75.539,83.6040223 0,83.6040223 0,83.6040223 C0,83.6040223 0,2.27402227 0,2.27402227 Z" id="path-1"></path>
        </g>
    </g>
</svg>