<svg xmlns="http://www.w3.org/2000/svg" xmlns:xlink="http://www.w3.org/1999/xlink" width="500" zoomAndPan="magnify" viewBox="0 0 375 374.999991" height="500" preserveAspectRatio="xMidYMid meet" version="1.0"><defs><g/><clipPath id="fd795b802c"><path d="M 218 147.003906 L 229 147.003906 L 229 187 L 218 187 Z M 218 147.003906 " clip-rule="nonzero"/></clipPath><clipPath id="46cfada13f"><path d="M 203 195 L 297 195 L 297 203.253906 L 203 203.253906 Z M 203 195 " clip-rule="nonzero"/></clipPath></defs><path fill="#000000" d="M 99.871094 176.972656 C 99.871094 182.675781 96.472656 186.855469 87 186.855469 L 65.246094 186.855469 L 65.246094 150.246094 L 86.066406 150.246094 C 95.425781 150.246094 98.722656 154.742188 98.722656 160.1875 C 98.722656 163.644531 97.359375 166.625 93.648438 168.351562 C 98.40625 170.128906 99.871094 173.320312 99.871094 176.980469 Z M 74.972656 158.5625 L 74.972656 164.582031 L 85.28125 164.582031 C 87.894531 164.582031 88.992188 163.484375 88.992188 161.550781 C 88.992188 159.617188 87.894531 158.570312 85.28125 158.570312 L 74.972656 158.570312 Z M 90.140625 175.246094 C 90.140625 173.101562 88.992188 171.953125 85.800781 171.953125 L 74.972656 172.003906 L 74.972656 178.539062 L 85.800781 178.539062 C 88.992188 178.539062 90.140625 177.390625 90.140625 175.246094 Z M 90.140625 175.246094 " fill-opacity="1" fill-rule="nonzero"/><path fill="#000000" d="M 134.382812 159.660156 L 134.382812 186.855469 L 125.125 186.855469 L 125.019531 183.824219 C 122.824219 186.652344 119.796875 187.644531 116.550781 187.644531 C 108.449219 187.644531 103.316406 181.210938 103.316406 173.261719 C 103.316406 165.3125 108.441406 158.929688 116.550781 158.929688 C 120.425781 158.929688 123.769531 160.34375 126.699219 165.152344 L 124.96875 162.171875 L 125.125 159.660156 Z M 125.070312 173.261719 C 125.070312 169.652344 122.613281 167.089844 118.800781 167.089844 C 114.984375 167.089844 112.679688 169.652344 112.679688 173.261719 C 112.679688 176.871094 115.039062 179.433594 118.800781 179.433594 C 122.5625 179.433594 125.070312 176.871094 125.070312 173.261719 Z M 125.070312 173.261719 " fill-opacity="1" fill-rule="nonzero"/><path fill="#000000" d="M 138.519531 178.386719 L 147.097656 178.386719 C 147.414062 180.214844 149.246094 180.683594 152.121094 180.683594 C 155.832031 180.683594 156.5625 179.902344 156.5625 178.75 C 156.5625 177.5 155.679688 176.972656 153.949219 176.820312 L 147.730469 176.242188 C 142.027344 175.722656 138.785156 173.3125 138.785156 167.976562 C 138.785156 162.011719 142.972656 158.878906 152.332031 158.878906 C 158.453125 158.878906 164.574219 160.238281 165.042969 167.925781 L 156.511719 167.925781 C 156.148438 166.25 154.734375 165.679688 152.019531 165.679688 C 149.558594 165.679688 147.992188 166.148438 147.992188 167.671875 C 147.992188 168.921875 148.9375 169.449219 150.605469 169.601562 L 156.777344 170.179688 C 162.53125 170.648438 165.875 172.589844 165.875 178.285156 C 165.875 183.976562 161.796875 187.644531 151.855469 187.644531 C 144.589844 187.644531 138.9375 185.867188 138.519531 178.386719 Z M 138.519531 178.386719 " fill-opacity="1" fill-rule="nonzero"/><path fill="#000000" d="M 184.957031 180.480469 C 187.367188 180.480469 189.144531 179.695312 189.714844 178.121094 L 198.660156 178.121094 C 198.140625 182.515625 193.324219 187.636719 184.4375 187.636719 C 174.660156 187.636719 169.324219 181.363281 169.324219 173.253906 C 169.324219 165.140625 174.863281 158.871094 184.539062 158.871094 C 194.21875 158.871094 200.175781 165.253906 199.289062 175.96875 L 178.839844 175.96875 C 179.519531 178.84375 181.347656 180.460938 184.957031 180.460938 Z M 178.785156 170.386719 L 190.03125 170.386719 C 189.246094 166.988281 187.519531 165.730469 184.539062 165.730469 C 181.246094 165.730469 179.417969 167.246094 178.785156 170.386719 Z M 178.785156 170.386719 " fill-opacity="1" fill-rule="nonzero"/><path fill="#000000" d="M 203.527344 149.726562 L 212.992188 149.726562 L 212.992188 186.863281 L 203.527344 186.863281 Z M 203.527344 149.726562 " fill-opacity="1" fill-rule="nonzero"/><g clip-path="url(#fd795b802c)"><path fill="#000000" d="M 218.167969 151.761719 C 218.167969 149.199219 220.050781 147.003906 223.191406 147.003906 C 226.332031 147.003906 228.160156 149.199219 228.160156 151.761719 C 228.160156 154.324219 226.28125 156.519531 223.191406 156.519531 C 220.101562 156.519531 218.167969 154.375 218.167969 151.761719 Z M 218.484375 159.660156 L 227.898438 159.660156 L 227.898438 186.855469 L 218.484375 186.855469 Z M 218.484375 159.660156 " fill-opacity="1" fill-rule="nonzero"/></g><path fill="#000000" d="M 263.253906 171.382812 L 263.253906 186.863281 L 253.839844 186.863281 L 253.839844 173.109375 C 253.839844 169.652344 252.691406 167.089844 248.554688 167.089844 C 244.417969 167.089844 242.800781 169.652344 242.800781 173.058594 L 242.800781 186.863281 L 233.335938 186.863281 L 233.335938 159.660156 L 242.433594 159.660156 L 242.800781 163.058594 L 241.964844 164.988281 C 243.796875 161.59375 246.410156 158.871094 252.164062 158.871094 C 259.847656 158.871094 263.253906 163.679688 263.253906 171.371094 Z M 263.253906 171.382812 " fill-opacity="1" fill-rule="nonzero"/><path fill="#000000" d="M 283.074219 180.480469 C 285.484375 180.480469 287.261719 179.695312 287.832031 178.121094 L 296.777344 178.121094 C 296.261719 182.515625 291.441406 187.636719 282.558594 187.636719 C 272.777344 187.636719 267.441406 181.363281 267.441406 173.253906 C 267.441406 165.140625 272.980469 158.871094 282.660156 158.871094 C 292.335938 158.871094 298.292969 165.253906 297.410156 175.96875 L 276.957031 175.96875 C 277.636719 178.84375 279.46875 180.460938 283.074219 180.460938 Z M 276.90625 170.386719 L 288.148438 170.386719 C 287.367188 166.988281 285.636719 165.730469 282.660156 165.730469 C 279.363281 165.730469 277.535156 167.246094 276.90625 170.386719 Z M 276.90625 170.386719 " fill-opacity="1" fill-rule="nonzero"/><path fill="#000000" d="M 299.546875 182.148438 C 299.546875 179.425781 301.476562 177.175781 304.667969 177.175781 C 307.859375 177.175781 309.742188 179.425781 309.742188 182.148438 C 309.742188 184.871094 307.808594 187.117188 304.667969 187.117188 C 301.527344 187.117188 299.546875 184.871094 299.546875 182.148438 Z M 299.546875 182.148438 " fill-opacity="1" fill-rule="nonzero"/><g clip-path="url(#46cfada13f)"><path fill="#000000" d="M 203.222656 195.121094 L 296.539062 195.121094 L 296.539062 203.382812 L 203.222656 203.382812 Z M 203.222656 195.121094 " fill-opacity="1" fill-rule="nonzero"/></g><g fill="#000000" fill-opacity="1"><g transform="translate(65.849857, 224.870805)"><g><path d="M 0.28125 0 L 2.734375 -7.953125 L 4.421875 -7.953125 L 6.875 0 L 5.890625 0 L 5.265625 -2.015625 L 1.890625 -2.015625 L 1.265625 0 Z M 2.125 -2.875 L 5.015625 -2.875 L 3.65625 -7.375 L 3.5 -7.375 Z M 2.125 -2.875 "/></g></g></g><g fill="#000000" fill-opacity="1"><g transform="translate(73.007696, 224.870805)"><g><path d="M 3.5 0.15625 C 2.957031 0.15625 2.472656 0.0390625 2.046875 -0.1875 C 1.617188 -0.414062 1.28125 -0.742188 1.03125 -1.171875 C 0.789062 -1.609375 0.671875 -2.125 0.671875 -2.71875 L 0.671875 -2.84375 C 0.671875 -3.4375 0.789062 -3.945312 1.03125 -4.375 C 1.28125 -4.800781 1.617188 -5.128906 2.046875 -5.359375 C 2.472656 -5.597656 2.957031 -5.71875 3.5 -5.71875 C 4.03125 -5.71875 4.484375 -5.617188 4.859375 -5.421875 C 5.234375 -5.222656 5.523438 -4.957031 5.734375 -4.625 C 5.953125 -4.300781 6.09375 -3.957031 6.15625 -3.59375 L 5.28125 -3.40625 C 5.238281 -3.675781 5.148438 -3.925781 5.015625 -4.15625 C 4.878906 -4.382812 4.6875 -4.566406 4.4375 -4.703125 C 4.1875 -4.835938 3.878906 -4.90625 3.515625 -4.90625 C 3.140625 -4.90625 2.804688 -4.820312 2.515625 -4.65625 C 2.222656 -4.488281 1.988281 -4.25 1.8125 -3.9375 C 1.644531 -3.625 1.5625 -3.253906 1.5625 -2.828125 L 1.5625 -2.71875 C 1.5625 -2.289062 1.644531 -1.921875 1.8125 -1.609375 C 1.988281 -1.296875 2.222656 -1.054688 2.515625 -0.890625 C 2.804688 -0.722656 3.140625 -0.640625 3.515625 -0.640625 C 4.066406 -0.640625 4.488281 -0.785156 4.78125 -1.078125 C 5.070312 -1.367188 5.25 -1.722656 5.3125 -2.140625 L 6.203125 -1.953125 C 6.117188 -1.585938 5.96875 -1.242188 5.75 -0.921875 C 5.53125 -0.597656 5.234375 -0.335938 4.859375 -0.140625 C 4.484375 0.0546875 4.03125 0.15625 3.5 0.15625 Z M 3.5 0.15625 "/></g></g></g><g fill="#000000" fill-opacity="1"><g transform="translate(79.80196, 224.870805)"><g><path d="M 3.5 0.15625 C 2.957031 0.15625 2.472656 0.0390625 2.046875 -0.1875 C 1.617188 -0.414062 1.28125 -0.742188 1.03125 -1.171875 C 0.789062 -1.609375 0.671875 -2.125 0.671875 -2.71875 L 0.671875 -2.84375 C 0.671875 -3.4375 0.789062 -3.945312 1.03125 -4.375 C 1.28125 -4.800781 1.617188 -5.128906 2.046875 -5.359375 C 2.472656 -5.597656 2.957031 -5.71875 3.5 -5.71875 C 4.03125 -5.71875 4.484375 -5.617188 4.859375 -5.421875 C 5.234375 -5.222656 5.523438 -4.957031 5.734375 -4.625 C 5.953125 -4.300781 6.09375 -3.957031 6.15625 -3.59375 L 5.28125 -3.40625 C 5.238281 -3.675781 5.148438 -3.925781 5.015625 -4.15625 C 4.878906 -4.382812 4.6875 -4.566406 4.4375 -4.703125 C 4.1875 -4.835938 3.878906 -4.90625 3.515625 -4.90625 C 3.140625 -4.90625 2.804688 -4.820312 2.515625 -4.65625 C 2.222656 -4.488281 1.988281 -4.25 1.8125 -3.9375 C 1.644531 -3.625 1.5625 -3.253906 1.5625 -2.828125 L 1.5625 -2.71875 C 1.5625 -2.289062 1.644531 -1.921875 1.8125 -1.609375 C 1.988281 -1.296875 2.222656 -1.054688 2.515625 -0.890625 C 2.804688 -0.722656 3.140625 -0.640625 3.515625 -0.640625 C 4.066406 -0.640625 4.488281 -0.785156 4.78125 -1.078125 C 5.070312 -1.367188 5.25 -1.722656 5.3125 -2.140625 L 6.203125 -1.953125 C 6.117188 -1.585938 5.96875 -1.242188 5.75 -0.921875 C 5.53125 -0.597656 5.234375 -0.335938 4.859375 -0.140625 C 4.484375 0.0546875 4.03125 0.15625 3.5 0.15625 Z M 3.5 0.15625 "/></g></g></g><g fill="#000000" fill-opacity="1"><g transform="translate(86.596225, 224.870805)"><g><path d="M 3.515625 0.15625 C 2.953125 0.15625 2.457031 0.0390625 2.03125 -0.1875 C 1.601562 -0.425781 1.269531 -0.757812 1.03125 -1.1875 C 0.789062 -1.613281 0.671875 -2.117188 0.671875 -2.703125 L 0.671875 -2.84375 C 0.671875 -3.425781 0.789062 -3.929688 1.03125 -4.359375 C 1.269531 -4.796875 1.601562 -5.128906 2.03125 -5.359375 C 2.457031 -5.597656 2.953125 -5.71875 3.515625 -5.71875 C 4.066406 -5.71875 4.554688 -5.597656 4.984375 -5.359375 C 5.421875 -5.128906 5.753906 -4.796875 5.984375 -4.359375 C 6.222656 -3.929688 6.34375 -3.425781 6.34375 -2.84375 L 6.34375 -2.703125 C 6.34375 -2.117188 6.222656 -1.613281 5.984375 -1.1875 C 5.753906 -0.757812 5.421875 -0.425781 4.984375 -0.1875 C 4.554688 0.0390625 4.066406 0.15625 3.515625 0.15625 Z M 3.515625 -0.640625 C 4.097656 -0.640625 4.566406 -0.828125 4.921875 -1.203125 C 5.273438 -1.578125 5.453125 -2.082031 5.453125 -2.71875 L 5.453125 -2.828125 C 5.453125 -3.460938 5.273438 -3.96875 4.921875 -4.34375 C 4.566406 -4.71875 4.097656 -4.90625 3.515625 -4.90625 C 2.929688 -4.90625 2.457031 -4.71875 2.09375 -4.34375 C 1.738281 -3.96875 1.5625 -3.460938 1.5625 -2.828125 L 1.5625 -2.71875 C 1.5625 -2.082031 1.738281 -1.578125 2.09375 -1.203125 C 2.457031 -0.828125 2.929688 -0.640625 3.515625 -0.640625 Z M 3.515625 -0.640625 "/></g></g><g transform="translate(93.617724, 224.870805)"><g><path d="M 0.9375 0 L 0.9375 -5.5625 L 1.8125 -5.5625 L 1.8125 -4.859375 L 1.96875 -4.859375 C 2.082031 -5.054688 2.257812 -5.238281 2.5 -5.40625 C 2.738281 -5.570312 3.078125 -5.65625 3.515625 -5.65625 C 3.953125 -5.65625 4.300781 -5.5625 4.5625 -5.375 C 4.832031 -5.1875 5.03125 -4.957031 5.15625 -4.6875 L 5.3125 -4.6875 C 5.445312 -4.957031 5.644531 -5.1875 5.90625 -5.375 C 6.164062 -5.5625 6.53125 -5.65625 7 -5.65625 C 7.363281 -5.65625 7.6875 -5.578125 7.96875 -5.421875 C 8.25 -5.273438 8.472656 -5.054688 8.640625 -4.765625 C 8.804688 -4.484375 8.890625 -4.148438 8.890625 -3.765625 L 8.890625 0 L 7.984375 0 L 7.984375 -3.6875 C 7.984375 -4.050781 7.875 -4.34375 7.65625 -4.5625 C 7.445312 -4.78125 7.148438 -4.890625 6.765625 -4.890625 C 6.347656 -4.890625 6.007812 -4.753906 5.75 -4.484375 C 5.488281 -4.222656 5.359375 -3.84375 5.359375 -3.34375 L 5.359375 0 L 4.46875 0 L 4.46875 -3.6875 C 4.46875 -4.050781 4.359375 -4.34375 4.140625 -4.5625 C 3.921875 -4.78125 3.617188 -4.890625 3.234375 -4.890625 C 2.828125 -4.890625 2.492188 -4.753906 2.234375 -4.484375 C 1.972656 -4.222656 1.84375 -3.84375 1.84375 -3.34375 L 1.84375 0 Z M 0.9375 0 "/></g></g></g><g fill="#000000" fill-opacity="1"><g transform="translate(103.388741, 224.870805)"><g><path d="M 0.9375 2.265625 L 0.9375 -5.5625 L 1.8125 -5.5625 L 1.8125 -4.640625 L 1.96875 -4.640625 C 2.113281 -4.921875 2.347656 -5.171875 2.671875 -5.390625 C 2.992188 -5.609375 3.441406 -5.71875 4.015625 -5.71875 C 4.492188 -5.71875 4.929688 -5.597656 5.328125 -5.359375 C 5.722656 -5.128906 6.039062 -4.800781 6.28125 -4.375 C 6.519531 -3.957031 6.640625 -3.445312 6.640625 -2.84375 L 6.640625 -2.703125 C 6.640625 -2.109375 6.519531 -1.59375 6.28125 -1.15625 C 6.050781 -0.726562 5.738281 -0.398438 5.34375 -0.171875 C 4.945312 0.046875 4.503906 0.15625 4.015625 0.15625 C 3.628906 0.15625 3.300781 0.101562 3.03125 0 C 2.769531 -0.09375 2.554688 -0.21875 2.390625 -0.375 C 2.222656 -0.539062 2.09375 -0.707031 2 -0.875 L 1.84375 -0.875 L 1.84375 2.265625 Z M 3.78125 -0.640625 C 4.351562 -0.640625 4.816406 -0.820312 5.171875 -1.1875 C 5.535156 -1.550781 5.71875 -2.0625 5.71875 -2.71875 L 5.71875 -2.828125 C 5.71875 -3.484375 5.535156 -3.992188 5.171875 -4.359375 C 4.816406 -4.734375 4.351562 -4.921875 3.78125 -4.921875 C 3.21875 -4.921875 2.75 -4.734375 2.375 -4.359375 C 2.007812 -3.992188 1.828125 -3.484375 1.828125 -2.828125 L 1.828125 -2.71875 C 1.828125 -2.0625 2.007812 -1.550781 2.375 -1.1875 C 2.75 -0.820312 3.21875 -0.640625 3.78125 -0.640625 Z M 3.78125 -0.640625 "/></g></g></g><g fill="#000000" fill-opacity="1"><g transform="translate(110.705642, 224.870805)"><g><path d="M 2.640625 0.15625 C 2.253906 0.15625 1.898438 0.0859375 1.578125 -0.046875 C 1.265625 -0.179688 1.015625 -0.375 0.828125 -0.625 C 0.648438 -0.882812 0.5625 -1.203125 0.5625 -1.578125 C 0.5625 -1.953125 0.648438 -2.265625 0.828125 -2.515625 C 1.015625 -2.765625 1.265625 -2.953125 1.578125 -3.078125 C 1.898438 -3.203125 2.257812 -3.265625 2.65625 -3.265625 L 4.53125 -3.265625 L 4.53125 -3.671875 C 4.53125 -4.066406 4.414062 -4.375 4.1875 -4.59375 C 3.957031 -4.820312 3.613281 -4.9375 3.15625 -4.9375 C 2.707031 -4.9375 2.359375 -4.828125 2.109375 -4.609375 C 1.859375 -4.398438 1.691406 -4.113281 1.609375 -3.75 L 0.765625 -4.015625 C 0.847656 -4.328125 0.988281 -4.609375 1.1875 -4.859375 C 1.382812 -5.117188 1.644531 -5.328125 1.96875 -5.484375 C 2.300781 -5.640625 2.703125 -5.71875 3.171875 -5.71875 C 3.878906 -5.71875 4.429688 -5.53125 4.828125 -5.15625 C 5.222656 -4.789062 5.421875 -4.273438 5.421875 -3.609375 L 5.421875 -1.109375 C 5.421875 -0.878906 5.523438 -0.765625 5.734375 -0.765625 L 6.25 -0.765625 L 6.25 0 L 5.46875 0 C 5.21875 0 5.015625 -0.0664062 4.859375 -0.203125 C 4.710938 -0.347656 4.640625 -0.535156 4.640625 -0.765625 L 4.640625 -0.828125 L 4.5 -0.828125 C 4.414062 -0.679688 4.300781 -0.53125 4.15625 -0.375 C 4.019531 -0.21875 3.828125 -0.09375 3.578125 0 C 3.335938 0.101562 3.023438 0.15625 2.640625 0.15625 Z M 2.75 -0.609375 C 3.28125 -0.609375 3.707031 -0.765625 4.03125 -1.078125 C 4.363281 -1.398438 4.53125 -1.84375 4.53125 -2.40625 L 4.53125 -2.53125 L 2.6875 -2.53125 C 2.332031 -2.53125 2.039062 -2.453125 1.8125 -2.296875 C 1.582031 -2.140625 1.46875 -1.910156 1.46875 -1.609375 C 1.46875 -1.296875 1.585938 -1.050781 1.828125 -0.875 C 2.066406 -0.695312 2.375 -0.609375 2.75 -0.609375 Z M 2.75 -0.609375 "/></g></g></g><g fill="#000000" fill-opacity="1"><g transform="translate(117.23859, 224.870805)"><g><path d="M 0.671875 -2.75 L 0.671875 -2.90625 C 0.671875 -3.488281 0.785156 -3.988281 1.015625 -4.40625 C 1.253906 -4.820312 1.570312 -5.144531 1.96875 -5.375 C 2.375 -5.601562 2.816406 -5.71875 3.296875 -5.71875 C 3.878906 -5.71875 4.328125 -5.601562 4.640625 -5.375 C 4.953125 -5.15625 5.1875 -4.910156 5.34375 -4.640625 L 5.5 -4.640625 L 5.5 -5.5625 L 6.34375 -5.5625 L 6.34375 1.296875 C 6.34375 1.597656 6.257812 1.832031 6.09375 2 C 5.925781 2.175781 5.6875 2.265625 5.375 2.265625 L 1.609375 2.265625 L 1.609375 1.484375 L 5.140625 1.484375 C 5.359375 1.484375 5.46875 1.367188 5.46875 1.140625 L 5.46875 -0.984375 L 5.3125 -0.984375 C 5.226562 -0.816406 5.101562 -0.648438 4.9375 -0.484375 C 4.769531 -0.328125 4.550781 -0.195312 4.28125 -0.09375 C 4.019531 0.0078125 3.691406 0.0625 3.296875 0.0625 C 2.816406 0.0625 2.375 -0.0507812 1.96875 -0.28125 C 1.570312 -0.507812 1.253906 -0.832031 1.015625 -1.25 C 0.785156 -1.675781 0.671875 -2.175781 0.671875 -2.75 Z M 3.53125 -0.734375 C 4.101562 -0.734375 4.566406 -0.914062 4.921875 -1.28125 C 5.285156 -1.644531 5.46875 -2.144531 5.46875 -2.78125 L 5.46875 -2.875 C 5.46875 -3.519531 5.285156 -4.019531 4.921875 -4.375 C 4.566406 -4.738281 4.101562 -4.921875 3.53125 -4.921875 C 2.96875 -4.921875 2.5 -4.738281 2.125 -4.375 C 1.757812 -4.019531 1.578125 -3.519531 1.578125 -2.875 L 1.578125 -2.78125 C 1.578125 -2.144531 1.757812 -1.644531 2.125 -1.28125 C 2.5 -0.914062 2.96875 -0.734375 3.53125 -0.734375 Z M 3.53125 -0.734375 "/></g></g></g><g fill="#000000" fill-opacity="1"><g transform="translate(124.532768, 224.870805)"><g><path d="M 0.9375 0 L 0.9375 -5.5625 L 1.8125 -5.5625 L 1.8125 -4.609375 L 1.96875 -4.609375 C 2.09375 -4.878906 2.300781 -5.117188 2.59375 -5.328125 C 2.882812 -5.546875 3.316406 -5.65625 3.890625 -5.65625 C 4.304688 -5.65625 4.675781 -5.566406 5 -5.390625 C 5.332031 -5.222656 5.597656 -4.96875 5.796875 -4.625 C 5.992188 -4.28125 6.09375 -3.859375 6.09375 -3.359375 L 6.09375 0 L 5.1875 0 L 5.1875 -3.296875 C 5.1875 -3.847656 5.046875 -4.25 4.765625 -4.5 C 4.492188 -4.75 4.125 -4.875 3.65625 -4.875 C 3.113281 -4.875 2.675781 -4.695312 2.34375 -4.34375 C 2.007812 -4 1.84375 -3.484375 1.84375 -2.796875 L 1.84375 0 Z M 0.9375 0 "/></g></g><g transform="translate(131.497459, 224.870805)"><g><path d="M 3.484375 0.15625 C 2.921875 0.15625 2.425781 0.0351562 2 -0.203125 C 1.582031 -0.441406 1.253906 -0.773438 1.015625 -1.203125 C 0.785156 -1.640625 0.671875 -2.140625 0.671875 -2.703125 L 0.671875 -2.84375 C 0.671875 -3.414062 0.785156 -3.914062 1.015625 -4.34375 C 1.253906 -4.78125 1.582031 -5.117188 2 -5.359375 C 2.414062 -5.597656 2.894531 -5.71875 3.4375 -5.71875 C 3.957031 -5.71875 4.414062 -5.601562 4.8125 -5.375 C 5.21875 -5.15625 5.53125 -4.835938 5.75 -4.421875 C 5.976562 -4.003906 6.09375 -3.515625 6.09375 -2.953125 L 6.09375 -2.546875 L 1.5625 -2.546875 C 1.59375 -1.941406 1.785156 -1.472656 2.140625 -1.140625 C 2.503906 -0.804688 2.960938 -0.640625 3.515625 -0.640625 C 3.984375 -0.640625 4.347656 -0.75 4.609375 -0.96875 C 4.867188 -1.1875 5.066406 -1.445312 5.203125 -1.75 L 5.96875 -1.375 C 5.851562 -1.132812 5.695312 -0.894531 5.5 -0.65625 C 5.300781 -0.425781 5.039062 -0.234375 4.71875 -0.078125 C 4.394531 0.078125 3.984375 0.15625 3.484375 0.15625 Z M 1.578125 -3.28125 L 5.1875 -3.28125 C 5.15625 -3.800781 4.976562 -4.203125 4.65625 -4.484375 C 4.34375 -4.773438 3.9375 -4.921875 3.4375 -4.921875 C 2.925781 -4.921875 2.503906 -4.773438 2.171875 -4.484375 C 1.847656 -4.203125 1.648438 -3.800781 1.578125 -3.28125 Z M 1.578125 -3.28125 "/></g></g></g><g fill="#000000" fill-opacity="1"><g transform="translate(138.223558, 224.870805)"><g><path d="M 0.9375 0 L 0.9375 -5.5625 L 1.8125 -5.5625 L 1.8125 -4.859375 L 1.96875 -4.859375 C 2.082031 -5.054688 2.257812 -5.238281 2.5 -5.40625 C 2.738281 -5.570312 3.078125 -5.65625 3.515625 -5.65625 C 3.953125 -5.65625 4.300781 -5.5625 4.5625 -5.375 C 4.832031 -5.1875 5.03125 -4.957031 5.15625 -4.6875 L 5.3125 -4.6875 C 5.445312 -4.957031 5.644531 -5.1875 5.90625 -5.375 C 6.164062 -5.5625 6.53125 -5.65625 7 -5.65625 C 7.363281 -5.65625 7.6875 -5.578125 7.96875 -5.421875 C 8.25 -5.273438 8.472656 -5.054688 8.640625 -4.765625 C 8.804688 -4.484375 8.890625 -4.148438 8.890625 -3.765625 L 8.890625 0 L 7.984375 0 L 7.984375 -3.6875 C 7.984375 -4.050781 7.875 -4.34375 7.65625 -4.5625 C 7.445312 -4.78125 7.148438 -4.890625 6.765625 -4.890625 C 6.347656 -4.890625 6.007812 -4.753906 5.75 -4.484375 C 5.488281 -4.222656 5.359375 -3.84375 5.359375 -3.34375 L 5.359375 0 L 4.46875 0 L 4.46875 -3.6875 C 4.46875 -4.050781 4.359375 -4.34375 4.140625 -4.5625 C 3.921875 -4.78125 3.617188 -4.890625 3.234375 -4.890625 C 2.828125 -4.890625 2.492188 -4.753906 2.234375 -4.484375 C 1.972656 -4.222656 1.84375 -3.84375 1.84375 -3.34375 L 1.84375 0 Z M 0.9375 0 "/></g></g></g><g fill="#000000" fill-opacity="1"><g transform="translate(147.994571, 224.870805)"><g><path d="M 3.484375 0.15625 C 2.921875 0.15625 2.425781 0.0351562 2 -0.203125 C 1.582031 -0.441406 1.253906 -0.773438 1.015625 -1.203125 C 0.785156 -1.640625 0.671875 -2.140625 0.671875 -2.703125 L 0.671875 -2.84375 C 0.671875 -3.414062 0.785156 -3.914062 1.015625 -4.34375 C 1.253906 -4.78125 1.582031 -5.117188 2 -5.359375 C 2.414062 -5.597656 2.894531 -5.71875 3.4375 -5.71875 C 3.957031 -5.71875 4.414062 -5.601562 4.8125 -5.375 C 5.21875 -5.15625 5.53125 -4.835938 5.75 -4.421875 C 5.976562 -4.003906 6.09375 -3.515625 6.09375 -2.953125 L 6.09375 -2.546875 L 1.5625 -2.546875 C 1.59375 -1.941406 1.785156 -1.472656 2.140625 -1.140625 C 2.503906 -0.804688 2.960938 -0.640625 3.515625 -0.640625 C 3.984375 -0.640625 4.347656 -0.75 4.609375 -0.96875 C 4.867188 -1.1875 5.066406 -1.445312 5.203125 -1.75 L 5.96875 -1.375 C 5.851562 -1.132812 5.695312 -0.894531 5.5 -0.65625 C 5.300781 -0.425781 5.039062 -0.234375 4.71875 -0.078125 C 4.394531 0.078125 3.984375 0.15625 3.484375 0.15625 Z M 1.578125 -3.28125 L 5.1875 -3.28125 C 5.15625 -3.800781 4.976562 -4.203125 4.65625 -4.484375 C 4.34375 -4.773438 3.9375 -4.921875 3.4375 -4.921875 C 2.925781 -4.921875 2.503906 -4.773438 2.171875 -4.484375 C 1.847656 -4.203125 1.648438 -3.800781 1.578125 -3.28125 Z M 1.578125 -3.28125 "/></g></g></g><g fill="#000000" fill-opacity="1"><g transform="translate(154.720663, 224.870805)"><g><path d="M 0.9375 0 L 0.9375 -5.5625 L 1.8125 -5.5625 L 1.8125 -4.609375 L 1.96875 -4.609375 C 2.09375 -4.878906 2.300781 -5.117188 2.59375 -5.328125 C 2.882812 -5.546875 3.316406 -5.65625 3.890625 -5.65625 C 4.304688 -5.65625 4.675781 -5.566406 5 -5.390625 C 5.332031 -5.222656 5.597656 -4.96875 5.796875 -4.625 C 5.992188 -4.28125 6.09375 -3.859375 6.09375 -3.359375 L 6.09375 0 L 5.1875 0 L 5.1875 -3.296875 C 5.1875 -3.847656 5.046875 -4.25 4.765625 -4.5 C 4.492188 -4.75 4.125 -4.875 3.65625 -4.875 C 3.113281 -4.875 2.675781 -4.695312 2.34375 -4.34375 C 2.007812 -4 1.84375 -3.484375 1.84375 -2.796875 L 1.84375 0 Z M 0.9375 0 "/></g></g><g transform="translate(161.685354, 224.870805)"><g><path d="M 2.984375 0 C 2.671875 0 2.425781 -0.0820312 2.25 -0.25 C 2.082031 -0.425781 2 -0.671875 2 -0.984375 L 2 -4.765625 L 0.328125 -4.765625 L 0.328125 -5.5625 L 2 -5.5625 L 2 -7.53125 L 2.890625 -7.53125 L 2.890625 -5.5625 L 4.71875 -5.5625 L 4.71875 -4.765625 L 2.890625 -4.765625 L 2.890625 -1.109375 C 2.890625 -0.878906 3 -0.765625 3.21875 -0.765625 L 4.46875 -0.765625 L 4.46875 0 Z M 2.984375 0 "/></g></g></g><g fill="#000000" fill-opacity="1"><g transform="translate(166.911715, 224.870805)"><g/></g></g><g fill="#000000" fill-opacity="1"><g transform="translate(169.831665, 224.870805)"><g><path d="M 3.484375 0.15625 C 2.921875 0.15625 2.425781 0.0351562 2 -0.203125 C 1.582031 -0.441406 1.253906 -0.773438 1.015625 -1.203125 C 0.785156 -1.640625 0.671875 -2.140625 0.671875 -2.703125 L 0.671875 -2.84375 C 0.671875 -3.414062 0.785156 -3.914062 1.015625 -4.34375 C 1.253906 -4.78125 1.582031 -5.117188 2 -5.359375 C 2.414062 -5.597656 2.894531 -5.71875 3.4375 -5.71875 C 3.957031 -5.71875 4.414062 -5.601562 4.8125 -5.375 C 5.21875 -5.15625 5.53125 -4.835938 5.75 -4.421875 C 5.976562 -4.003906 6.09375 -3.515625 6.09375 -2.953125 L 6.09375 -2.546875 L 1.5625 -2.546875 C 1.59375 -1.941406 1.785156 -1.472656 2.140625 -1.140625 C 2.503906 -0.804688 2.960938 -0.640625 3.515625 -0.640625 C 3.984375 -0.640625 4.347656 -0.75 4.609375 -0.96875 C 4.867188 -1.1875 5.066406 -1.445312 5.203125 -1.75 L 5.96875 -1.375 C 5.851562 -1.132812 5.695312 -0.894531 5.5 -0.65625 C 5.300781 -0.425781 5.039062 -0.234375 4.71875 -0.078125 C 4.394531 0.078125 3.984375 0.15625 3.484375 0.15625 Z M 1.578125 -3.28125 L 5.1875 -3.28125 C 5.15625 -3.800781 4.976562 -4.203125 4.65625 -4.484375 C 4.34375 -4.773438 3.9375 -4.921875 3.4375 -4.921875 C 2.925781 -4.921875 2.503906 -4.773438 2.171875 -4.484375 C 1.847656 -4.203125 1.648438 -3.800781 1.578125 -3.28125 Z M 1.578125 -3.28125 "/></g></g></g><g fill="#000000" fill-opacity="1"><g transform="translate(176.557757, 224.870805)"><g><path d="M 0.9375 0 L 0.9375 -5.5625 L 1.8125 -5.5625 L 1.8125 -4.609375 L 1.96875 -4.609375 C 2.09375 -4.878906 2.300781 -5.117188 2.59375 -5.328125 C 2.882812 -5.546875 3.316406 -5.65625 3.890625 -5.65625 C 4.304688 -5.65625 4.675781 -5.566406 5 -5.390625 C 5.332031 -5.222656 5.597656 -4.96875 5.796875 -4.625 C 5.992188 -4.28125 6.09375 -3.859375 6.09375 -3.359375 L 6.09375 0 L 5.1875 0 L 5.1875 -3.296875 C 5.1875 -3.847656 5.046875 -4.25 4.765625 -4.5 C 4.492188 -4.75 4.125 -4.875 3.65625 -4.875 C 3.113281 -4.875 2.675781 -4.695312 2.34375 -4.34375 C 2.007812 -4 1.84375 -3.484375 1.84375 -2.796875 L 1.84375 0 Z M 0.9375 0 "/></g></g><g transform="translate(183.522448, 224.870805)"><g/></g></g><g fill="#000000" fill-opacity="1"><g transform="translate(186.442386, 224.870805)"><g><path d="M 0.9375 0 L 0.9375 -5.5625 L 1.84375 -5.5625 L 1.84375 0 Z M 1.40625 -6.421875 C 1.207031 -6.421875 1.039062 -6.484375 0.90625 -6.609375 C 0.769531 -6.734375 0.703125 -6.894531 0.703125 -7.09375 C 0.703125 -7.300781 0.769531 -7.46875 0.90625 -7.59375 C 1.039062 -7.726562 1.207031 -7.796875 1.40625 -7.796875 C 1.601562 -7.796875 1.765625 -7.726562 1.890625 -7.59375 C 2.015625 -7.46875 2.078125 -7.300781 2.078125 -7.09375 C 2.078125 -6.894531 2.015625 -6.734375 1.890625 -6.609375 C 1.765625 -6.484375 1.601562 -6.421875 1.40625 -6.421875 Z M 1.40625 -6.421875 "/></g></g></g><g fill="#000000" fill-opacity="1"><g transform="translate(189.225985, 224.870805)"><g><path d="M 0.9375 0 L 0.9375 -5.5625 L 1.8125 -5.5625 L 1.8125 -4.609375 L 1.96875 -4.609375 C 2.09375 -4.878906 2.300781 -5.117188 2.59375 -5.328125 C 2.882812 -5.546875 3.316406 -5.65625 3.890625 -5.65625 C 4.304688 -5.65625 4.675781 -5.566406 5 -5.390625 C 5.332031 -5.222656 5.597656 -4.96875 5.796875 -4.625 C 5.992188 -4.28125 6.09375 -3.859375 6.09375 -3.359375 L 6.09375 0 L 5.1875 0 L 5.1875 -3.296875 C 5.1875 -3.847656 5.046875 -4.25 4.765625 -4.5 C 4.492188 -4.75 4.125 -4.875 3.65625 -4.875 C 3.113281 -4.875 2.675781 -4.695312 2.34375 -4.34375 C 2.007812 -4 1.84375 -3.484375 1.84375 -2.796875 L 1.84375 0 Z M 0.9375 0 "/></g></g><g transform="translate(196.190676, 224.870805)"><g><path d="M 2.984375 0 C 2.671875 0 2.425781 -0.0820312 2.25 -0.25 C 2.082031 -0.425781 2 -0.671875 2 -0.984375 L 2 -4.765625 L 0.328125 -4.765625 L 0.328125 -5.5625 L 2 -5.5625 L 2 -7.53125 L 2.890625 -7.53125 L 2.890625 -5.5625 L 4.71875 -5.5625 L 4.71875 -4.765625 L 2.890625 -4.765625 L 2.890625 -1.109375 C 2.890625 -0.878906 3 -0.765625 3.21875 -0.765625 L 4.46875 -0.765625 L 4.46875 0 Z M 2.984375 0 "/></g></g></g><g fill="#000000" fill-opacity="1"><g transform="translate(201.417037, 224.870805)"><g><path d="M 3.484375 0.15625 C 2.921875 0.15625 2.425781 0.0351562 2 -0.203125 C 1.582031 -0.441406 1.253906 -0.773438 1.015625 -1.203125 C 0.785156 -1.640625 0.671875 -2.140625 0.671875 -2.703125 L 0.671875 -2.84375 C 0.671875 -3.414062 0.785156 -3.914062 1.015625 -4.34375 C 1.253906 -4.78125 1.582031 -5.117188 2 -5.359375 C 2.414062 -5.597656 2.894531 -5.71875 3.4375 -5.71875 C 3.957031 -5.71875 4.414062 -5.601562 4.8125 -5.375 C 5.21875 -5.15625 5.53125 -4.835938 5.75 -4.421875 C 5.976562 -4.003906 6.09375 -3.515625 6.09375 -2.953125 L 6.09375 -2.546875 L 1.5625 -2.546875 C 1.59375 -1.941406 1.785156 -1.472656 2.140625 -1.140625 C 2.503906 -0.804688 2.960938 -0.640625 3.515625 -0.640625 C 3.984375 -0.640625 4.347656 -0.75 4.609375 -0.96875 C 4.867188 -1.1875 5.066406 -1.445312 5.203125 -1.75 L 5.96875 -1.375 C 5.851562 -1.132812 5.695312 -0.894531 5.5 -0.65625 C 5.300781 -0.425781 5.039062 -0.234375 4.71875 -0.078125 C 4.394531 0.078125 3.984375 0.15625 3.484375 0.15625 Z M 1.578125 -3.28125 L 5.1875 -3.28125 C 5.15625 -3.800781 4.976562 -4.203125 4.65625 -4.484375 C 4.34375 -4.773438 3.9375 -4.921875 3.4375 -4.921875 C 2.925781 -4.921875 2.503906 -4.773438 2.171875 -4.484375 C 1.847656 -4.203125 1.648438 -3.800781 1.578125 -3.28125 Z M 1.578125 -3.28125 "/></g></g></g><g fill="#000000" fill-opacity="1"><g transform="translate(208.143129, 224.870805)"><g><path d="M 0.9375 0 L 0.9375 -7.953125 L 1.84375 -7.953125 L 1.84375 0 Z M 0.9375 0 "/></g></g></g><g fill="#000000" fill-opacity="1"><g transform="translate(210.926727, 224.870805)"><g><path d="M 0.9375 0 L 0.9375 -7.953125 L 1.84375 -7.953125 L 1.84375 0 Z M 0.9375 0 "/></g></g></g><g fill="#000000" fill-opacity="1"><g transform="translate(213.710326, 224.870805)"><g><path d="M 0.9375 0 L 0.9375 -5.5625 L 1.84375 -5.5625 L 1.84375 0 Z M 1.40625 -6.421875 C 1.207031 -6.421875 1.039062 -6.484375 0.90625 -6.609375 C 0.769531 -6.734375 0.703125 -6.894531 0.703125 -7.09375 C 0.703125 -7.300781 0.769531 -7.46875 0.90625 -7.59375 C 1.039062 -7.726562 1.207031 -7.796875 1.40625 -7.796875 C 1.601562 -7.796875 1.765625 -7.726562 1.890625 -7.59375 C 2.015625 -7.46875 2.078125 -7.300781 2.078125 -7.09375 C 2.078125 -6.894531 2.015625 -6.734375 1.890625 -6.609375 C 1.765625 -6.484375 1.601562 -6.421875 1.40625 -6.421875 Z M 1.40625 -6.421875 "/></g></g></g><g fill="#000000" fill-opacity="1"><g transform="translate(216.493924, 224.870805)"><g><path d="M 0.671875 -2.75 L 0.671875 -2.90625 C 0.671875 -3.488281 0.785156 -3.988281 1.015625 -4.40625 C 1.253906 -4.820312 1.570312 -5.144531 1.96875 -5.375 C 2.375 -5.601562 2.816406 -5.71875 3.296875 -5.71875 C 3.878906 -5.71875 4.328125 -5.601562 4.640625 -5.375 C 4.953125 -5.15625 5.1875 -4.910156 5.34375 -4.640625 L 5.5 -4.640625 L 5.5 -5.5625 L 6.34375 -5.5625 L 6.34375 1.296875 C 6.34375 1.597656 6.257812 1.832031 6.09375 2 C 5.925781 2.175781 5.6875 2.265625 5.375 2.265625 L 1.609375 2.265625 L 1.609375 1.484375 L 5.140625 1.484375 C 5.359375 1.484375 5.46875 1.367188 5.46875 1.140625 L 5.46875 -0.984375 L 5.3125 -0.984375 C 5.226562 -0.816406 5.101562 -0.648438 4.9375 -0.484375 C 4.769531 -0.328125 4.550781 -0.195312 4.28125 -0.09375 C 4.019531 0.0078125 3.691406 0.0625 3.296875 0.0625 C 2.816406 0.0625 2.375 -0.0507812 1.96875 -0.28125 C 1.570312 -0.507812 1.253906 -0.832031 1.015625 -1.25 C 0.785156 -1.675781 0.671875 -2.175781 0.671875 -2.75 Z M 3.53125 -0.734375 C 4.101562 -0.734375 4.566406 -0.914062 4.921875 -1.28125 C 5.285156 -1.644531 5.46875 -2.144531 5.46875 -2.78125 L 5.46875 -2.875 C 5.46875 -3.519531 5.285156 -4.019531 4.921875 -4.375 C 4.566406 -4.738281 4.101562 -4.921875 3.53125 -4.921875 C 2.96875 -4.921875 2.5 -4.738281 2.125 -4.375 C 1.757812 -4.019531 1.578125 -3.519531 1.578125 -2.875 L 1.578125 -2.78125 C 1.578125 -2.144531 1.757812 -1.644531 2.125 -1.28125 C 2.5 -0.914062 2.96875 -0.734375 3.53125 -0.734375 Z M 3.53125 -0.734375 "/></g></g></g><g fill="#000000" fill-opacity="1"><g transform="translate(223.788108, 224.870805)"><g><path d="M 3.484375 0.15625 C 2.921875 0.15625 2.425781 0.0351562 2 -0.203125 C 1.582031 -0.441406 1.253906 -0.773438 1.015625 -1.203125 C 0.785156 -1.640625 0.671875 -2.140625 0.671875 -2.703125 L 0.671875 -2.84375 C 0.671875 -3.414062 0.785156 -3.914062 1.015625 -4.34375 C 1.253906 -4.78125 1.582031 -5.117188 2 -5.359375 C 2.414062 -5.597656 2.894531 -5.71875 3.4375 -5.71875 C 3.957031 -5.71875 4.414062 -5.601562 4.8125 -5.375 C 5.21875 -5.15625 5.53125 -4.835938 5.75 -4.421875 C 5.976562 -4.003906 6.09375 -3.515625 6.09375 -2.953125 L 6.09375 -2.546875 L 1.5625 -2.546875 C 1.59375 -1.941406 1.785156 -1.472656 2.140625 -1.140625 C 2.503906 -0.804688 2.960938 -0.640625 3.515625 -0.640625 C 3.984375 -0.640625 4.347656 -0.75 4.609375 -0.96875 C 4.867188 -1.1875 5.066406 -1.445312 5.203125 -1.75 L 5.96875 -1.375 C 5.851562 -1.132812 5.695312 -0.894531 5.5 -0.65625 C 5.300781 -0.425781 5.039062 -0.234375 4.71875 -0.078125 C 4.394531 0.078125 3.984375 0.15625 3.484375 0.15625 Z M 1.578125 -3.28125 L 5.1875 -3.28125 C 5.15625 -3.800781 4.976562 -4.203125 4.65625 -4.484375 C 4.34375 -4.773438 3.9375 -4.921875 3.4375 -4.921875 C 2.925781 -4.921875 2.503906 -4.773438 2.171875 -4.484375 C 1.847656 -4.203125 1.648438 -3.800781 1.578125 -3.28125 Z M 1.578125 -3.28125 "/></g></g></g><g fill="#000000" fill-opacity="1"><g transform="translate(230.5142, 224.870805)"><g><path d="M 0.9375 0 L 0.9375 -5.5625 L 1.8125 -5.5625 L 1.8125 -4.609375 L 1.96875 -4.609375 C 2.09375 -4.878906 2.300781 -5.117188 2.59375 -5.328125 C 2.882812 -5.546875 3.316406 -5.65625 3.890625 -5.65625 C 4.304688 -5.65625 4.675781 -5.566406 5 -5.390625 C 5.332031 -5.222656 5.597656 -4.96875 5.796875 -4.625 C 5.992188 -4.28125 6.09375 -3.859375 6.09375 -3.359375 L 6.09375 0 L 5.1875 0 L 5.1875 -3.296875 C 5.1875 -3.847656 5.046875 -4.25 4.765625 -4.5 C 4.492188 -4.75 4.125 -4.875 3.65625 -4.875 C 3.113281 -4.875 2.675781 -4.695312 2.34375 -4.34375 C 2.007812 -4 1.84375 -3.484375 1.84375 -2.796875 L 1.84375 0 Z M 0.9375 0 "/></g></g><g transform="translate(237.478891, 224.870805)"><g><path d="M 3.5 0.15625 C 2.957031 0.15625 2.472656 0.0390625 2.046875 -0.1875 C 1.617188 -0.414062 1.28125 -0.742188 1.03125 -1.171875 C 0.789062 -1.609375 0.671875 -2.125 0.671875 -2.71875 L 0.671875 -2.84375 C 0.671875 -3.4375 0.789062 -3.945312 1.03125 -4.375 C 1.28125 -4.800781 1.617188 -5.128906 2.046875 -5.359375 C 2.472656 -5.597656 2.957031 -5.71875 3.5 -5.71875 C 4.03125 -5.71875 4.484375 -5.617188 4.859375 -5.421875 C 5.234375 -5.222656 5.523438 -4.957031 5.734375 -4.625 C 5.953125 -4.300781 6.09375 -3.957031 6.15625 -3.59375 L 5.28125 -3.40625 C 5.238281 -3.675781 5.148438 -3.925781 5.015625 -4.15625 C 4.878906 -4.382812 4.6875 -4.566406 4.4375 -4.703125 C 4.1875 -4.835938 3.878906 -4.90625 3.515625 -4.90625 C 3.140625 -4.90625 2.804688 -4.820312 2.515625 -4.65625 C 2.222656 -4.488281 1.988281 -4.25 1.8125 -3.9375 C 1.644531 -3.625 1.5625 -3.253906 1.5625 -2.828125 L 1.5625 -2.71875 C 1.5625 -2.289062 1.644531 -1.921875 1.8125 -1.609375 C 1.988281 -1.296875 2.222656 -1.054688 2.515625 -0.890625 C 2.804688 -0.722656 3.140625 -0.640625 3.515625 -0.640625 C 4.066406 -0.640625 4.488281 -0.785156 4.78125 -1.078125 C 5.070312 -1.367188 5.25 -1.722656 5.3125 -2.140625 L 6.203125 -1.953125 C 6.117188 -1.585938 5.96875 -1.242188 5.75 -0.921875 C 5.53125 -0.597656 5.234375 -0.335938 4.859375 -0.140625 C 4.484375 0.0546875 4.03125 0.15625 3.5 0.15625 Z M 3.5 0.15625 "/></g></g></g><g fill="#000000" fill-opacity="1"><g transform="translate(244.273153, 224.870805)"><g><path d="M 3.484375 0.15625 C 2.921875 0.15625 2.425781 0.0351562 2 -0.203125 C 1.582031 -0.441406 1.253906 -0.773438 1.015625 -1.203125 C 0.785156 -1.640625 0.671875 -2.140625 0.671875 -2.703125 L 0.671875 -2.84375 C 0.671875 -3.414062 0.785156 -3.914062 1.015625 -4.34375 C 1.253906 -4.78125 1.582031 -5.117188 2 -5.359375 C 2.414062 -5.597656 2.894531 -5.71875 3.4375 -5.71875 C 3.957031 -5.71875 4.414062 -5.601562 4.8125 -5.375 C 5.21875 -5.15625 5.53125 -4.835938 5.75 -4.421875 C 5.976562 -4.003906 6.09375 -3.515625 6.09375 -2.953125 L 6.09375 -2.546875 L 1.5625 -2.546875 C 1.59375 -1.941406 1.785156 -1.472656 2.140625 -1.140625 C 2.503906 -0.804688 2.960938 -0.640625 3.515625 -0.640625 C 3.984375 -0.640625 4.347656 -0.75 4.609375 -0.96875 C 4.867188 -1.1875 5.066406 -1.445312 5.203125 -1.75 L 5.96875 -1.375 C 5.851562 -1.132812 5.695312 -0.894531 5.5 -0.65625 C 5.300781 -0.425781 5.039062 -0.234375 4.71875 -0.078125 C 4.394531 0.078125 3.984375 0.15625 3.484375 0.15625 Z M 1.578125 -3.28125 L 5.1875 -3.28125 C 5.15625 -3.800781 4.976562 -4.203125 4.65625 -4.484375 C 4.34375 -4.773438 3.9375 -4.921875 3.4375 -4.921875 C 2.925781 -4.921875 2.503906 -4.773438 2.171875 -4.484375 C 1.847656 -4.203125 1.648438 -3.800781 1.578125 -3.28125 Z M 1.578125 -3.28125 "/></g></g></g><g fill="#000000" fill-opacity="1"><g transform="translate(253.919195, 224.870805)"><g><path d="M 2.640625 0.15625 C 2.253906 0.15625 1.898438 0.0859375 1.578125 -0.046875 C 1.265625 -0.179688 1.015625 -0.375 0.828125 -0.625 C 0.648438 -0.882812 0.5625 -1.203125 0.5625 -1.578125 C 0.5625 -1.953125 0.648438 -2.265625 0.828125 -2.515625 C 1.015625 -2.765625 1.265625 -2.953125 1.578125 -3.078125 C 1.898438 -3.203125 2.257812 -3.265625 2.65625 -3.265625 L 4.53125 -3.265625 L 4.53125 -3.671875 C 4.53125 -4.066406 4.414062 -4.375 4.1875 -4.59375 C 3.957031 -4.820312 3.613281 -4.9375 3.15625 -4.9375 C 2.707031 -4.9375 2.359375 -4.828125 2.109375 -4.609375 C 1.859375 -4.398438 1.691406 -4.113281 1.609375 -3.75 L 0.765625 -4.015625 C 0.847656 -4.328125 0.988281 -4.609375 1.1875 -4.859375 C 1.382812 -5.117188 1.644531 -5.328125 1.96875 -5.484375 C 2.300781 -5.640625 2.703125 -5.71875 3.171875 -5.71875 C 3.878906 -5.71875 4.429688 -5.53125 4.828125 -5.15625 C 5.222656 -4.789062 5.421875 -4.273438 5.421875 -3.609375 L 5.421875 -1.109375 C 5.421875 -0.878906 5.523438 -0.765625 5.734375 -0.765625 L 6.25 -0.765625 L 6.25 0 L 5.46875 0 C 5.21875 0 5.015625 -0.0664062 4.859375 -0.203125 C 4.710938 -0.347656 4.640625 -0.535156 4.640625 -0.765625 L 4.640625 -0.828125 L 4.5 -0.828125 C 4.414062 -0.679688 4.300781 -0.53125 4.15625 -0.375 C 4.019531 -0.21875 3.828125 -0.09375 3.578125 0 C 3.335938 0.101562 3.023438 0.15625 2.640625 0.15625 Z M 2.75 -0.609375 C 3.28125 -0.609375 3.707031 -0.765625 4.03125 -1.078125 C 4.363281 -1.398438 4.53125 -1.84375 4.53125 -2.40625 L 4.53125 -2.53125 L 2.6875 -2.53125 C 2.332031 -2.53125 2.039062 -2.453125 1.8125 -2.296875 C 1.582031 -2.140625 1.46875 -1.910156 1.46875 -1.609375 C 1.46875 -1.296875 1.585938 -1.050781 1.828125 -0.875 C 2.066406 -0.695312 2.375 -0.609375 2.75 -0.609375 Z M 2.75 -0.609375 "/></g></g></g><g fill="#000000" fill-opacity="1"><g transform="translate(260.452146, 224.870805)"><g><path d="M 0.9375 0 L 0.9375 -5.5625 L 1.8125 -5.5625 L 1.8125 -4.875 L 1.96875 -4.875 C 2.070312 -5.113281 2.222656 -5.289062 2.421875 -5.40625 C 2.628906 -5.519531 2.898438 -5.578125 3.234375 -5.578125 L 3.890625 -5.578125 L 3.890625 -4.765625 L 3.1875 -4.765625 C 2.78125 -4.765625 2.453125 -4.648438 2.203125 -4.421875 C 1.960938 -4.203125 1.84375 -3.859375 1.84375 -3.390625 L 1.84375 0 Z M 0.9375 0 "/></g></g></g><g fill="#000000" fill-opacity="1"><g transform="translate(264.735488, 224.870805)"><g><path d="M 2.984375 0 C 2.671875 0 2.425781 -0.0820312 2.25 -0.25 C 2.082031 -0.425781 2 -0.671875 2 -0.984375 L 2 -4.765625 L 0.328125 -4.765625 L 0.328125 -5.5625 L 2 -5.5625 L 2 -7.53125 L 2.890625 -7.53125 L 2.890625 -5.5625 L 4.71875 -5.5625 L 4.71875 -4.765625 L 2.890625 -4.765625 L 2.890625 -1.109375 C 2.890625 -0.878906 3 -0.765625 3.21875 -0.765625 L 4.46875 -0.765625 L 4.46875 0 Z M 2.984375 0 "/></g></g></g><g fill="#000000" fill-opacity="1"><g transform="translate(269.961849, 224.870805)"><g><path d="M 0.9375 0 L 0.9375 -5.5625 L 1.84375 -5.5625 L 1.84375 0 Z M 1.40625 -6.421875 C 1.207031 -6.421875 1.039062 -6.484375 0.90625 -6.609375 C 0.769531 -6.734375 0.703125 -6.894531 0.703125 -7.09375 C 0.703125 -7.300781 0.769531 -7.46875 0.90625 -7.59375 C 1.039062 -7.726562 1.207031 -7.796875 1.40625 -7.796875 C 1.601562 -7.796875 1.765625 -7.726562 1.890625 -7.59375 C 2.015625 -7.46875 2.078125 -7.300781 2.078125 -7.09375 C 2.078125 -6.894531 2.015625 -6.734375 1.890625 -6.609375 C 1.765625 -6.484375 1.601562 -6.421875 1.40625 -6.421875 Z M 1.40625 -6.421875 "/></g></g></g><g fill="#000000" fill-opacity="1"><g transform="translate(272.745447, 224.870805)"><g><path d="M 2.03125 0 L 2.03125 -4.765625 L 0.328125 -4.765625 L 0.328125 -5.5625 L 2.03125 -5.5625 L 2.03125 -6.96875 C 2.03125 -7.269531 2.113281 -7.507812 2.28125 -7.6875 C 2.457031 -7.863281 2.703125 -7.953125 3.015625 -7.953125 L 4.421875 -7.953125 L 4.421875 -7.171875 L 3.265625 -7.171875 C 3.046875 -7.171875 2.9375 -7.0625 2.9375 -6.84375 L 2.9375 -5.5625 L 4.6875 -5.5625 L 4.6875 -4.765625 L 2.9375 -4.765625 L 2.9375 0 Z M 2.03125 0 "/></g></g></g><g fill="#000000" fill-opacity="1"><g transform="translate(277.767286, 224.870805)"><g><path d="M 0.9375 0 L 0.9375 -5.5625 L 1.84375 -5.5625 L 1.84375 0 Z M 1.40625 -6.421875 C 1.207031 -6.421875 1.039062 -6.484375 0.90625 -6.609375 C 0.769531 -6.734375 0.703125 -6.894531 0.703125 -7.09375 C 0.703125 -7.300781 0.769531 -7.46875 0.90625 -7.59375 C 1.039062 -7.726562 1.207031 -7.796875 1.40625 -7.796875 C 1.601562 -7.796875 1.765625 -7.726562 1.890625 -7.59375 C 2.015625 -7.46875 2.078125 -7.300781 2.078125 -7.09375 C 2.078125 -6.894531 2.015625 -6.734375 1.890625 -6.609375 C 1.765625 -6.484375 1.601562 -6.421875 1.40625 -6.421875 Z M 1.40625 -6.421875 "/></g></g></g><g fill="#000000" fill-opacity="1"><g transform="translate(280.550884, 224.870805)"><g><path d="M 3.5 0.15625 C 2.957031 0.15625 2.472656 0.0390625 2.046875 -0.1875 C 1.617188 -0.414062 1.28125 -0.742188 1.03125 -1.171875 C 0.789062 -1.609375 0.671875 -2.125 0.671875 -2.71875 L 0.671875 -2.84375 C 0.671875 -3.4375 0.789062 -3.945312 1.03125 -4.375 C 1.28125 -4.800781 1.617188 -5.128906 2.046875 -5.359375 C 2.472656 -5.597656 2.957031 -5.71875 3.5 -5.71875 C 4.03125 -5.71875 4.484375 -5.617188 4.859375 -5.421875 C 5.234375 -5.222656 5.523438 -4.957031 5.734375 -4.625 C 5.953125 -4.300781 6.09375 -3.957031 6.15625 -3.59375 L 5.28125 -3.40625 C 5.238281 -3.675781 5.148438 -3.925781 5.015625 -4.15625 C 4.878906 -4.382812 4.6875 -4.566406 4.4375 -4.703125 C 4.1875 -4.835938 3.878906 -4.90625 3.515625 -4.90625 C 3.140625 -4.90625 2.804688 -4.820312 2.515625 -4.65625 C 2.222656 -4.488281 1.988281 -4.25 1.8125 -3.9375 C 1.644531 -3.625 1.5625 -3.253906 1.5625 -2.828125 L 1.5625 -2.71875 C 1.5625 -2.289062 1.644531 -1.921875 1.8125 -1.609375 C 1.988281 -1.296875 2.222656 -1.054688 2.515625 -0.890625 C 2.804688 -0.722656 3.140625 -0.640625 3.515625 -0.640625 C 4.066406 -0.640625 4.488281 -0.785156 4.78125 -1.078125 C 5.070312 -1.367188 5.25 -1.722656 5.3125 -2.140625 L 6.203125 -1.953125 C 6.117188 -1.585938 5.96875 -1.242188 5.75 -0.921875 C 5.53125 -0.597656 5.234375 -0.335938 4.859375 -0.140625 C 4.484375 0.0546875 4.03125 0.15625 3.5 0.15625 Z M 3.5 0.15625 "/></g></g></g><g fill="#000000" fill-opacity="1"><g transform="translate(287.345158, 224.870805)"><g><path d="M 0.9375 0 L 0.9375 -5.5625 L 1.84375 -5.5625 L 1.84375 0 Z M 1.40625 -6.421875 C 1.207031 -6.421875 1.039062 -6.484375 0.90625 -6.609375 C 0.769531 -6.734375 0.703125 -6.894531 0.703125 -7.09375 C 0.703125 -7.300781 0.769531 -7.46875 0.90625 -7.59375 C 1.039062 -7.726562 1.207031 -7.796875 1.40625 -7.796875 C 1.601562 -7.796875 1.765625 -7.726562 1.890625 -7.59375 C 2.015625 -7.46875 2.078125 -7.300781 2.078125 -7.09375 C 2.078125 -6.894531 2.015625 -6.734375 1.890625 -6.609375 C 1.765625 -6.484375 1.601562 -6.421875 1.40625 -6.421875 Z M 1.40625 -6.421875 "/></g></g></g><g fill="#000000" fill-opacity="1"><g transform="translate(290.128757, 224.870805)"><g><path d="M 3.484375 0.15625 C 2.921875 0.15625 2.425781 0.0351562 2 -0.203125 C 1.582031 -0.441406 1.253906 -0.773438 1.015625 -1.203125 C 0.785156 -1.640625 0.671875 -2.140625 0.671875 -2.703125 L 0.671875 -2.84375 C 0.671875 -3.414062 0.785156 -3.914062 1.015625 -4.34375 C 1.253906 -4.78125 1.582031 -5.117188 2 -5.359375 C 2.414062 -5.597656 2.894531 -5.71875 3.4375 -5.71875 C 3.957031 -5.71875 4.414062 -5.601562 4.8125 -5.375 C 5.21875 -5.15625 5.53125 -4.835938 5.75 -4.421875 C 5.976562 -4.003906 6.09375 -3.515625 6.09375 -2.953125 L 6.09375 -2.546875 L 1.5625 -2.546875 C 1.59375 -1.941406 1.785156 -1.472656 2.140625 -1.140625 C 2.503906 -0.804688 2.960938 -0.640625 3.515625 -0.640625 C 3.984375 -0.640625 4.347656 -0.75 4.609375 -0.96875 C 4.867188 -1.1875 5.066406 -1.445312 5.203125 -1.75 L 5.96875 -1.375 C 5.851562 -1.132812 5.695312 -0.894531 5.5 -0.65625 C 5.300781 -0.425781 5.039062 -0.234375 4.71875 -0.078125 C 4.394531 0.078125 3.984375 0.15625 3.484375 0.15625 Z M 1.578125 -3.28125 L 5.1875 -3.28125 C 5.15625 -3.800781 4.976562 -4.203125 4.65625 -4.484375 C 4.34375 -4.773438 3.9375 -4.921875 3.4375 -4.921875 C 2.925781 -4.921875 2.503906 -4.773438 2.171875 -4.484375 C 1.847656 -4.203125 1.648438 -3.800781 1.578125 -3.28125 Z M 1.578125 -3.28125 "/></g></g></g><g fill="#000000" fill-opacity="1"><g transform="translate(296.854849, 224.870805)"><g><path d="M 0.9375 0 L 0.9375 -7.953125 L 1.84375 -7.953125 L 1.84375 0 Z M 0.9375 0 "/></g></g></g><g fill="#000000" fill-opacity="1"><g transform="translate(299.638447, 224.870805)"><g><path d="M 0.9375 0 L 0.9375 -7.953125 L 1.84375 -7.953125 L 1.84375 0 Z M 0.9375 0 "/></g></g></g><g fill="#000000" fill-opacity="1"><g transform="translate(302.422045, 224.870805)"><g><path d="M 3.484375 0.15625 C 2.921875 0.15625 2.425781 0.0351562 2 -0.203125 C 1.582031 -0.441406 1.253906 -0.773438 1.015625 -1.203125 C 0.785156 -1.640625 0.671875 -2.140625 0.671875 -2.703125 L 0.671875 -2.84375 C 0.671875 -3.414062 0.785156 -3.914062 1.015625 -4.34375 C 1.253906 -4.78125 1.582031 -5.117188 2 -5.359375 C 2.414062 -5.597656 2.894531 -5.71875 3.4375 -5.71875 C 3.957031 -5.71875 4.414062 -5.601562 4.8125 -5.375 C 5.21875 -5.15625 5.53125 -4.835938 5.75 -4.421875 C 5.976562 -4.003906 6.09375 -3.515625 6.09375 -2.953125 L 6.09375 -2.546875 L 1.5625 -2.546875 C 1.59375 -1.941406 1.785156 -1.472656 2.140625 -1.140625 C 2.503906 -0.804688 2.960938 -0.640625 3.515625 -0.640625 C 3.984375 -0.640625 4.347656 -0.75 4.609375 -0.96875 C 4.867188 -1.1875 5.066406 -1.445312 5.203125 -1.75 L 5.96875 -1.375 C 5.851562 -1.132812 5.695312 -0.894531 5.5 -0.65625 C 5.300781 -0.425781 5.039062 -0.234375 4.71875 -0.078125 C 4.394531 0.078125 3.984375 0.15625 3.484375 0.15625 Z M 1.578125 -3.28125 L 5.1875 -3.28125 C 5.15625 -3.800781 4.976562 -4.203125 4.65625 -4.484375 C 4.34375 -4.773438 3.9375 -4.921875 3.4375 -4.921875 C 2.925781 -4.921875 2.503906 -4.773438 2.171875 -4.484375 C 1.847656 -4.203125 1.648438 -3.800781 1.578125 -3.28125 Z M 1.578125 -3.28125 "/></g></g></g></svg>