<?xml version="1.0" encoding="UTF-8"?>
<svg width="110px" height="110px" viewBox="0 0 110 110" version="1.1" xmlns="http://www.w3.org/2000/svg" xmlns:xlink="http://www.w3.org/1999/xlink">
    <title>Artboard</title>
    <g id="Artboard" stroke="none" stroke-width="1" fill="none" fill-rule="evenodd">
        <g id="logo-ia" transform="translate(10, 31)" fill-rule="nonzero">
            <polygon id="Path" fill="#003DA5" points="4.15713296 10.3548387 10.997625 10.3548387 7.4377771 33.9987097 0.601162894 33.9987097"></polygon>
            <ellipse id="Oval" fill="#003DA5" cx="8.511936" cy="4.16903226" rx="4.17642286" ry="4.16903226"></ellipse>
            <path d="M35.901049,33.9987097 L42.9199212,33.9987097 L34.1056137,2.10193548 L27.9010858,2.10193548 L9.53180528,33.9987097 L16.5972115,33.9987097 L21.4444989,25.5754839 L33.5704732,25.5754839 L35.901049,33.9987097 Z M24.9423015,19.5058065 L29.6344758,11.3535484 L31.887495,19.5058065 L24.9423015,19.5058065 Z" id="Shape" fill="#003DA5"></path>
            <path d="M83.7340814,0 C85.6058972,0 87.3796181,0.835677789 88.5698606,2.27777254 C89.7601031,3.71986729 90.242235,5.61758601 89.8843197,7.4516129 L87.0612595,26.4696774 C87.0049639,26.777681 87.0883827,27.0947476 87.2890249,27.3353911 C87.4896671,27.5760346 87.7868754,27.7154794 88.100518,27.716129 L89.1320207,27.716129 L89.1320207,31.8967814 L86.1926256,31.8967814 C85.0856832,31.89883 84.0233728,31.4613173 83.2399179,30.6807011 C82.4564629,29.9000848 82.0162009,28.8404694 82.0162028,27.7354839 L82.0162028,16.6451613 L76.6570418,16.6451613 C76.4173906,16.6449628 76.1779195,16.6320414 75.9396432,16.6064516 C73.0090289,16.2787888 70.6804738,13.9974881 70.2974006,11.0787097 C70.2147901,10.4151228 70.2344064,9.74282353 70.3555681,9.08516129 L71.7399534,0 L83.7340814,0 Z" id="Path" fill="#7C878E"></path>
            <path d="M69.2620201,2.10193548 L60.3624003,2.10193548 C54.0648045,2.10193548 48.8607567,6.96774194 48.1317246,13.1612903 L44.9829267,33.9987097 L50.3614769,33.9987097 L52.6881748,25.5754839 L70.1384096,25.5754839 L70.1384096,33.9987097 L75.28429,33.9987097 L77.6109879,18.7393548 L76.6337748,18.7393548 C76.3138234,18.7398855 75.9940787,18.7230866 75.6759508,18.6890323 C71.7769601,18.2523524 68.6790248,15.2174035 68.168472,11.3341935 C68.0689083,10.5482894 68.0780421,9.75245316 68.1956168,8.96903226 L69.2271196,2.09806452" id="Path" fill="#7C878E"></path>
            <polygon id="Path" fill="#7C878E" points="52.5408173 33.9987097 57.8999783 33.9987097 60.5446583 27.6658065 54.2974743 27.6658065"></polygon>
            <path d="M9.92513301e-05,42.4451613 L9.92513301e-05,42.4219355 C-0.0074576056,41.3568554 0.416793546,40.3339922 1.17636811,39.5859687 C1.93594268,38.8379452 2.9662746,38.4283457 4.0330424,38.4503226 C5.13794823,38.3862531 6.22395143,38.7573425 7.05774977,39.483871 L5.99134653,40.7690323 C5.44888396,40.2563248 4.72560363,39.9780972 3.97875278,39.9948387 C2.71190621,40.0575291 1.72878196,41.1215566 1.76838971,42.3870968 L1.76838971,42.4103226 C1.7375977,43.045519 1.96906922,43.6655359 2.40879163,44.1256958 C2.84851404,44.5858557 3.45802112,44.8459046 4.09508768,44.8451613 C4.66149292,44.8614314 5.2187993,44.7003557 5.68887579,44.3845161 L5.68887579,43.2851613 L3.99038627,43.2851613 L3.99038627,41.8258065 L7.33307569,41.8258065 L7.33307569,45.1625806 C6.42068602,45.9525505 5.25244547,46.3857399 4.04467589,46.3819953 C1.64817698,46.3935484 9.92513301e-05,44.7135484 9.92513301e-05,42.4451613 Z" id="Path" fill="#003DA5"></path>
            <path d="M8.45376855,40.3819355 L10.1251133,40.3819355 L10.1251133,41.5664516 C10.4663623,40.7535484 11.0170141,40.2270968 12.0058608,40.2735484 L12.0058608,42.0193548 L11.9166707,42.0193548 C10.8076113,42.0193548 10.1251133,42.6890323 10.1251133,44.0941935 L10.1251133,46.2658065 L8.45376855,46.2658065 L8.45376855,40.3819355 Z" id="Path" fill="#003DA5"></path>
            <path d="M12.366499,43.3548387 L12.366499,43.3316129 C12.3723588,42.4972885 12.715229,41.7006227 13.317452,41.1220543 C13.9196749,40.543486 14.7302936,40.2319707 15.5657087,40.2580645 C16.3941452,40.2276736 17.1995533,40.5337288 17.7980328,41.1063479 C18.3965123,41.678967 18.7369638,42.4692587 18.7416514,43.2967742 L18.7416514,43.32 C18.7326796,44.1523008 18.3884454,44.9459571 17.7865706,45.5220062 C17.1846959,46.0980552 16.3758575,46.4079946 15.5424417,46.3819355 C14.7160076,46.4122766 13.9123905,46.1077932 13.3142636,45.5376985 C12.7161366,44.9676037 12.3743148,44.1803313 12.366499,43.3548387 L12.366499,43.3548387 Z M17.0935737,43.3548387 L17.0935737,43.3316129 C17.1148332,42.9077131 16.9608451,42.4936855 16.6676154,42.1863392 C16.3743857,41.8789928 15.9676244,41.7052756 15.5424417,41.7058065 C15.1216348,41.6995351 14.7173358,41.869031 14.4272022,42.1733527 C14.1370685,42.4776745 13.9874827,42.8891496 14.0145767,43.3083871 L14.0145767,43.3316129 C13.9933172,43.7555127 14.1473053,44.1695403 14.440535,44.4768866 C14.7337647,44.784233 15.1405259,44.9579502 15.5657087,44.9574194 C15.9865155,44.9636907 16.3908146,44.7941948 16.6809482,44.4898731 C16.9710819,44.1855514 17.1206677,43.7740762 17.0935737,43.3548387 Z" id="Shape" fill="#003DA5"></path>
            <path d="M19.5133396,44.1870968 L19.5133396,40.3780645 L21.1846843,40.3780645 L21.1846843,43.6606452 C21.1846843,44.4348387 21.5724673,44.8567742 22.1967979,44.8567742 C22.8211285,44.8567742 23.2399342,44.4696774 23.2399342,43.6606452 L23.2399342,40.3780645 L24.9112789,40.3780645 L24.9112789,46.2619355 L23.2399342,46.2619355 L23.2399342,45.4296774 C22.8589642,46.0125743 22.21148,46.3669711 21.5142998,46.3741935 C20.2501273,46.3741935 19.5133396,45.5380645 19.5133396,44.1870968 L19.5133396,44.1870968 Z" id="Path" fill="#003DA5"></path>
            <path d="M26.0436052,40.3819355 L27.7149499,40.3819355 L27.7149499,41.2258065 C28.1222275,40.6114282 28.8151091,40.246631 29.5530413,40.2580645 C30.9257931,40.2580645 32.2364997,41.3341935 32.2364997,43.2967742 L32.2364997,43.32 C32.2364997,45.2864516 30.9490601,46.3587097 29.5530413,46.3587097 C28.8366921,46.3724884 28.1562036,46.0464894 27.7188278,45.48 L27.7188278,48 L26.0436052,48 L26.0436052,40.3819355 Z M30.5612771,43.3354839 L30.5612771,43.3122581 C30.5612771,42.3367742 29.902046,41.6864516 29.1226022,41.6864516 C28.3431584,41.6864516 27.6916829,42.3329032 27.6916829,43.3122581 L27.6916829,43.3354839 C27.6916829,44.3109677 28.3392806,44.9612903 29.1226022,44.9612903 C29.9059239,44.9612903 30.5612771,44.3187097 30.5612771,43.3316129 L30.5612771,43.3354839 Z" id="Shape" fill="#003DA5"></path>
            <path d="M32.9616539,43.3548387 L32.9616539,43.3316129 C32.9616539,41.6516129 34.1599033,40.2696774 35.8739042,40.2696774 C37.8438418,40.2696774 38.7434983,41.7948387 38.7434983,43.4632258 C38.7434983,43.5948387 38.7434983,43.7496774 38.7202313,43.9006452 L34.6097316,43.9006452 C34.7132488,44.6026168 35.3390986,45.1077992 36.0484065,45.0619355 C36.5888468,45.0685277 37.1075154,44.8496412 37.4793258,44.4580645 L38.4332719,45.2903226 C37.6003376,46.2747161 36.2438003,46.6413828 35.0270998,46.2109975 C33.8103994,45.7806121 32.9878178,44.6431224 32.9616539,43.3548387 Z M37.1186876,42.8593548 C37.017864,42.1122581 36.5796692,41.6090323 35.877782,41.6090323 C35.1758948,41.6090323 34.7338221,42.1045161 34.6019759,42.8593548 L37.1186876,42.8593548 Z" id="Shape" fill="#003DA5"></path>
            <path d="M43.0944235,41.8064516 L42.400292,41.8064516 L42.400292,40.436129 L43.0944235,40.436129 L43.0944235,40.0490323 C43.0527121,39.5287004 43.2233148,39.0136102 43.5675188,38.6206452 C43.9376407,38.2906659 44.4259104,38.1244732 44.9208814,38.16 C45.3228494,38.150814 45.7236333,38.2070337 46.1074974,38.3264516 L46.1074974,39.7083871 C45.8602188,39.6126644 45.59715,39.5640828 45.3319314,39.5651613 C44.9441484,39.5651613 44.7269899,39.7625806 44.7269899,40.2 L44.7269899,40.4322581 L46.0803526,40.4322581 L46.0803526,41.8064516 L44.7502569,41.8064516 L44.7502569,46.2619355 L43.0789122,46.2619355 L43.0944235,41.8064516 Z M47.0847105,40.3780645 L48.7560553,40.3780645 L48.7560553,46.2619355 L47.0847105,46.2619355 L47.0847105,40.3780645 Z" id="Shape" fill="#003DA5"></path>
            <path d="M50.0008387,40.3819355 L51.6721834,40.3819355 L51.6721834,41.2141935 C52.0504562,40.6268662 52.6984096,40.2678521 53.3978177,40.2580645 C54.6619903,40.2580645 55.398778,41.0903226 55.398778,42.4412903 L55.398778,46.2503226 L53.7274333,46.2503226 L53.7274333,42.9677419 C53.7274333,42.1935484 53.3396503,41.7716129 52.7153196,41.7716129 C52.090989,41.7716129 51.6721834,42.1587097 51.6721834,42.9677419 L51.6721834,46.2503226 L50.0008387,46.2503226 L50.0008387,40.3819355 Z" id="Path" fill="#003DA5"></path>
            <path d="M56.2286336,43.3316129 L56.2286336,43.3083871 C56.2286336,41.3419355 57.5160731,40.2696774 58.9120919,40.2696774 C59.629661,40.255284 60.3115887,40.5812833 60.7501833,41.1483871 L60.7501833,40.3741935 L62.421528,40.3741935 L62.421528,46.2580645 L60.7501833,46.2580645 L60.7501833,45.4141935 C60.3402009,46.0241508 59.6477936,46.3843237 58.9120919,46.3703226 C57.5315844,46.3741935 56.2286336,45.2903226 56.2286336,43.3316129 L56.2286336,43.3316129 Z M60.7695725,43.3316129 L60.7695725,43.3083871 C60.7695725,42.3329032 60.1219749,41.6825806 59.3386532,41.6825806 C58.5553316,41.6825806 57.8999783,42.3174194 57.8999783,43.3083871 L57.8999783,43.3316129 C57.8999783,44.3070968 58.5592094,44.9574194 59.3386532,44.9574194 C60.118097,44.9574194 60.7618168,44.3109677 60.7618168,43.3316129 L60.7695725,43.3316129 Z" id="Shape" fill="#003DA5"></path>
            <path d="M63.6430444,40.3819355 L65.3143892,40.3819355 L65.3143892,41.2141935 C65.6953591,40.6312967 66.3428433,40.2768999 67.0400235,40.2696774 C68.3041961,40.2696774 69.0409837,41.1019355 69.0409837,42.4529032 L69.0409837,46.2619355 L67.369639,46.2619355 L67.369639,42.9677419 C67.369639,42.1935484 66.981856,41.7716129 66.3575254,41.7716129 C65.7331948,41.7716129 65.3143892,42.1587097 65.3143892,42.9677419 L65.3143892,46.2503226 L63.6430444,46.2503226 L63.6430444,40.3819355 Z" id="Path" fill="#003DA5"></path>
            <path d="M69.9096177,43.3548387 L69.9096177,43.3316129 C69.8977344,42.5098737 70.2219198,41.7188036 70.8073516,41.1409822 C71.3927835,40.5631608 72.1888728,40.2485194 73.0118816,40.2696774 C73.9072733,40.2171931 74.776515,40.5817143 75.3657244,41.2567742 L74.3419773,42.356129 C74.0161161,41.9486433 73.522568,41.7108494 73.0002481,41.7096774 C72.59604,41.7285199 72.216473,41.9090933 71.9472317,42.2106343 C71.6779904,42.5121753 71.5417727,42.9092632 71.5693289,43.3122581 L71.5693289,43.3354839 C71.5358717,43.7531869 71.6782902,44.1659154 71.9623448,44.4744434 C72.2463994,44.7829714 72.6463966,44.9593917 73.0661712,44.9612903 C73.5850462,44.9493195 74.0754618,44.7220795 74.4195339,44.3341935 L75.396747,45.3212903 C74.8068027,46.0362003 73.915746,46.4343893 72.9886146,46.3974194 C72.17173,46.4164099 71.3822305,46.1029787 70.8015312,45.5291475 C70.2208319,44.9553164 69.8988664,44.1704282 69.9096177,43.3548387 L69.9096177,43.3548387 Z" id="Path" fill="#003DA5"></path>
            <polygon id="Path" fill="#003DA5" points="76.218847 40.3819355 77.8901917 40.3819355 77.8901917 46.2658065 76.218847 46.2658065"></polygon>
            <path d="M78.8480157,43.3548387 L78.8480157,43.3316129 C78.8480157,41.6516129 80.0462652,40.2696774 81.760266,40.2696774 C83.7263258,40.2696774 84.6298602,41.7948387 84.6298602,43.4632258 C84.6298602,43.5948387 84.6298602,43.7496774 84.6065932,43.9006452 L80.5077269,43.9006452 C80.6112442,44.6026168 81.2370939,45.1077992 81.9464018,45.0619355 C82.4868421,45.0685277 83.0055107,44.8496412 83.3773211,44.4580645 L84.3351451,45.3019355 C83.5048651,46.2985108 82.1406745,46.6734771 80.9163798,46.2416297 C79.6920851,45.8097823 78.8667454,44.6624994 78.8480157,43.3664516 L78.8480157,43.3548387 Z M82.9856603,42.8593548 C82.8887145,42.1122581 82.4466419,41.6090323 81.7447547,41.6090323 C81.0428675,41.6090323 80.6007948,42.1045161 80.4689486,42.8593548 L82.9856603,42.8593548 Z" id="Shape" fill="#003DA5"></path>
            <path d="M85.5760507,40.3819355 L87.2512732,40.3819355 L87.2512732,41.5664516 C87.5925222,40.7535484 88.1431741,40.2270968 89.1320207,40.2735484 L89.1320207,42.0193548 L89.0428306,42.0193548 C87.9337713,42.0193548 87.2512732,42.6890323 87.2512732,44.0941935 L87.2512732,46.2658065 L85.5799285,46.2658065 L85.5760507,40.3819355 Z" id="Path" fill="#003DA5"></path>
            <path d="M77.0603361,38.0090323 C77.5818869,38.0111704 78.0033539,38.4342016 78.0026408,38.9548334 C78.0019259,39.4754652 77.5793003,39.897343 77.0577456,39.8980566 C76.5361908,39.8987684 76.1124097,39.4780472 76.1102677,38.9574194 C76.10818,38.7052583 76.2076056,38.4628196 76.3862326,38.2845087 C76.5648595,38.1061979 76.8077281,38.0069482 77.0603361,38.0090323 Z" id="Path" fill="#003DA5"></path>
            <path d="M47.9223218,38.0090323 C48.4438726,38.0111704 48.8653396,38.4342016 48.8646265,38.9548334 C48.8639117,39.4754652 48.441286,39.897343 47.9197313,39.8980566 C47.3981766,39.8987684 46.9743954,39.4780472 46.9722535,38.9574194 C46.9701657,38.7052583 47.0695913,38.4628196 47.2482183,38.2845087 C47.4268452,38.1061979 47.6697138,38.0069482 47.9223218,38.0090323 L47.9223218,38.0090323 Z" id="Path" fill="#003DA5"></path>
        </g>
    </g>
</svg>