<?xml version="1.0" encoding="UTF-8"?>
<svg width="439px" height="86px" viewBox="0 0 439 86" version="1.1" xmlns="http://www.w3.org/2000/svg" xmlns:xlink="http://www.w3.org/1999/xlink">
    <title>The logo (1) (1)</title>
    <g id="Page-1" stroke="none" stroke-width="1" fill="none" fill-rule="evenodd">
        <g id="Artboard" transform="translate(-334, -67)" fill="#212121" fill-rule="nonzero">
            <g id="The-logo-(1)-(1)" transform="translate(334, 67)">
                <path d="M22.3895,63.566 C22.8555,63.374 23.2795,63.091 23.6335,62.731 L68.0345,18.1073 C68.7395,17.3811 69.1335,16.4068 69.1335,15.3924 C69.1335,14.378 68.7395,13.4037 68.0345,12.6775 C67.6785,12.3176 67.2555,12.032 66.7895,11.837 C66.3245,11.6421 65.8245,11.5417 65.3195,11.5417 C64.8145,11.5417 64.3155,11.6421 63.8495,11.837 C63.3835,12.032 62.9605,12.3176 62.6055,12.6775 L20.8955,54.551 L6.5678,40.1585 C6.2123,39.7986 5.7895,39.5129 5.3236,39.3181 C4.8577,39.1232 4.358,39.0227 3.8533,39.0227 C3.3486,39.0227 2.8489,39.1232 2.383,39.3181 C1.9171,39.5129 1.4942,39.7986 1.1387,40.1585 C0.7783,40.512 0.4919,40.9341 0.2963,41.4004 C0.1007,41.8666 0,42.3674 0,42.8733 C0,43.3795 0.1007,43.8803 0.2963,44.3465 C0.4919,44.8127 0.7783,45.2349 1.1387,45.5884 L18.2285,62.731 C18.5815,63.087 19.0005,63.368 19.4625,63.559 C19.9245,63.751 20.4195,63.848 20.9195,63.8463571 C21.4235,63.853 21.9235,63.757 22.3895,63.566 Z" id="Path"></path>
                <path d="M54.5705,49.125 C55.1815,49.531 55.9005,49.7444 56.6335,49.7381011 C57.1225,49.7442 57.6085,49.6485 58.0595,49.4566 C58.5105,49.2648 58.9175,48.981 59.2535,48.6233 L86.4925,21.2372 C86.8395,20.8952 87.1145,20.4874 87.3015,20.0374 C87.4895,19.5877 87.5855,19.1048 87.5855,18.6171 C87.5855,18.1294 87.4895,17.6465 87.3015,17.1967 C87.1145,16.7469 86.8395,16.3391 86.4925,15.9971 C86.1525,15.6529 85.7485,15.3798 85.3025,15.1934 C84.8575,15.0071 84.3795,14.9111 83.8965,14.9111 C83.4135,14.9111 82.9355,15.0071 82.4905,15.1934 C82.0445,15.3798 81.6405,15.6529 81.3005,15.9971 L54.0125,43.4069 C53.4915,43.9244 53.1355,44.5864 52.9905,45.3083 C52.8455,46.0301 52.9185,46.779 53.1995,47.459 C53.4815,48.1389 53.9585,48.719 54.5705,49.125 Z" id="Path"></path>
                <path d="M79.3645,68.849 L90.0805,58.084 C90.4285,57.7437 90.7055,57.3371 90.8955,56.8881 C91.0845,56.4391 91.1835,55.9567 91.1855313,55.4689 C91.1875,54.9813 91.0935,54.498 90.9075,54.0474 C90.7225,53.5967 90.4495,53.1875 90.1045,52.8439 C89.7625,52.4992 89.3565,52.2254 88.9085,52.0388 C88.4605,51.8522 87.9805,51.7561 87.4965,51.7561 C87.0115,51.7561 86.5315,51.8522 86.0845,52.0388 C85.6365,52.2254 85.2305,52.4992 84.8875,52.8439 L74.1475,63.585 C73.4585,64.286 73.0725,65.232 73.0725,66.217 C73.0725,67.202 73.4585,68.148 74.1475,68.849 C74.4855,69.203 74.8895,69.484 75.3385,69.676 C75.7865,69.868 76.2685,69.967 76.7565,69.967 C77.2435,69.967 77.7255,69.868 78.1745,69.676 C78.6225,69.484 79.0275,69.203 79.3645,68.849 Z" id="Path"></path>
                <path d="M69.3085,58.724 L90.0805,37.8586 C90.7725,37.1636 91.1615,36.2211 91.1615,35.2385 C91.1615,34.2557 90.7725,33.3132 90.0805,32.6185 C89.3895,31.9235 88.4505,31.5332 87.4725,31.5332 C86.4945,31.5332 85.5565,31.9235 84.8645,32.6185 L64.0685,53.5315 C63.3895,54.2235 63.0095,55.1561 63.0095,56.1279 C63.0095,57.0995 63.3895,58.032 64.0685,58.724 C64.4095,59.078 64.8165,59.36 65.2655,59.555 C65.7155,59.75 66.1985,59.855 66.6885,59.862 C67.1785,59.855 67.6615,59.75 68.1115,59.555 C68.5615,59.36 68.9675,59.078 69.3085,58.724 Z" id="Path"></path>
                <path d="M172.3925,27.1992 C172.3925,27.2757 172.2775,27.3332 172.2195,27.2567 C168.6325,22.3375 162.3845,19.3705 155.4035,19.3705 C142.4445,19.3705 132.6675,29.343 132.6675,42.512 C132.6675,55.5468 142.6765,65.73 155.4035,65.73 C162.4035,65.73 168.6515,62.744 172.2195,57.8055 C172.2775,57.7289 172.3925,57.7671 172.3925,57.8438 L172.3925,62.323 C172.3925,63.701 173.5115,64.811 174.8605,64.811 L176.8855,64.811 C177.2125,64.808 177.5355,64.742 177.8365,64.616 C178.1375,64.489 178.4105,64.305 178.6395,64.074 C178.8685,63.843 179.0495,63.57 179.1725,63.269 C179.2945,62.969 179.3565,62.647 179.354547,62.323 L179.354547,22.7777 C179.3565,22.4542 179.2945,22.1337 179.1715,21.8341 C179.0485,21.5348 178.8675,21.2623 178.6385,21.0329 C178.4085,20.8032 178.1355,20.6212 177.8345,20.4967 C177.5345,20.3725 177.2115,20.3084 176.8855,20.3084 L174.8605,20.3084 C174.2065,20.3185 173.5815,20.5824 173.1205,21.0438 C172.6585,21.5053 172.3975,22.1276 172.3925,22.7777 L172.3925,27.1992 Z M161.6905,58.131 C150.0035,61.978 139.6675,53.6902 139.6675,42.4353 C139.6265,40.2967 140.0165,38.1714 140.8125,36.1839 C141.6095,34.1963 142.7985,32.3867 144.3085,30.8608 C145.8185,29.335 147.6205,28.1236 149.6085,27.2977 C151.5965,26.4717 153.7305,26.0478 155.8855,26.0507 C158.2195,26.0258 160.5305,26.4957 162.6665,27.4289 C164.8025,28.3623 166.7125,29.7373 168.2695,31.4625 C169.8275,33.1874 170.9955,35.2227 171.6965,37.432 C172.3975,39.6411 172.6145,41.9735 172.3345,44.2728 C172.1285,47.3653 171.0085,50.329 169.1155,52.7936 C167.2225,55.2583 164.6395,57.1146 161.6905,58.131 Z M255.7575,19.3897 C242.4905,19.3897 232.8875,29.0942 232.8875,42.4545 C232.8875,55.9679 242.4905,65.768 255.7575,65.768 C263.4715,65.768 270.2585,62.476 274.3865,56.8293 C274.5735,56.5611 274.6995,56.2552 274.7545,55.9333 C274.8085,55.6116 274.7905,55.2817 274.7015,54.9674 C274.6135,54.653 274.4575,54.3619 274.2425,54.1147 C274.0275,53.8675 273.7595,53.6702 273.4605,53.537 L271.8795,52.8097 C271.3055,52.5771 270.6725,52.5295 270.0705,52.6737 C269.4685,52.8181 268.9275,53.1469 268.5245,53.6137 C266.9545,55.3888 265.0105,56.8006 262.8325,57.7497 C260.6535,58.699 258.2905,59.162 255.9115,59.107 C247.2725,59.107 241.2555,53.9582 240.0605,45.651 C240.0605,45.5935 240.1185,45.5553 240.1955,45.5553 L275.9475,45.5553 C276.4285,45.5558 276.8895,45.3736 277.2375,45.0457 C277.5845,44.718 277.7945,44.2701 277.8185,43.7943 L277.8565,42.4545 C277.8185,28.6347 268.9475,19.3897 255.7575,19.3897 Z M255.7575,26.0507 C264.0885,26.0507 269.8155,31.123 270.8575,39.3154 C270.8765,39.3728 270.8175,39.4303 270.7795,39.4303 L240.2535,39.4303 C240.1955,39.4303 240.1575,39.3728 240.1755,39.3154 C241.4305,30.9891 247.2155,26.0507 255.7575,26.0507 Z M312.5685,19.3897 C305.6445,19.3897 299.3015,22.4905 295.7535,27.4097 C295.7135,27.4671 295.5605,27.4481 295.5605,27.3524 L295.5605,22.6628 C295.5545,22.0533 295.3105,21.47 294.8775,21.0372 C294.4455,20.6045 293.8585,20.3567 293.2455,20.3467 L290.9515,20.3467 C290.3285,20.3467 289.7315,20.5895 289.2865,21.0228 C288.8445,21.4561 288.5895,22.0451 288.5785,22.6628 L288.5785,83.684 C288.5785,84.947 289.6405,86 290.9515,86 L293.2455,86 C294.4985,86 295.5605,84.947 295.5605,83.684 L295.5605,57.863 C295.5605,57.7863 295.7135,57.7481 295.7535,57.8246 C299.3585,62.763 305.5885,65.749 312.5685,65.749 C325.5275,65.749 335.3035,55.8147 335.3035,42.6267 C335.3035,29.3813 325.5275,19.3897 312.5685,19.3897 Z M306.4165,26.9694 C308.9345,26.0737 311.6325,25.7998 314.2785,26.1711 C316.9275,26.5425 319.4435,27.548 321.6105,29.1008 C323.7805,30.6535 325.5345,32.7069 326.7235,35.0836 C327.9135,37.4601 328.5015,40.0886 328.4395,42.7416 C328.4725,44.8871 328.0735,47.0175 327.2665,49.0079 C326.4595,50.9984 325.2615,52.8089 323.7385,54.3332 C322.2175,55.8576 320.4045,57.065 318.4065,57.8848 C316.4105,58.705 314.2675,59.12 312.1055,59.107 C309.7645,59.136 307.4465,58.667 305.3055,57.7314 C303.1635,56.7959 301.2495,55.4155 299.6895,53.6832 C298.1305,51.951 296.9645,49.9071 296.2685,47.6896 C295.5735,45.4719 295.3635,43.1319 295.6565,40.8275 C295.8645,37.7191 296.9975,34.742 298.9135,32.2747 C300.8305,29.8072 303.4405,27.9606 306.4165,26.9694 Z M352.6595,2.98599997 L351.2515,2.98599997 C350.5245,2.98599997 349.8255,3.2717 349.3095,3.7809 C348.7925,4.2901 348.4985,4.9814 348.4955,5.704 L348.4955,20.2127 C348.4955,20.2702 348.4375,20.3277 348.3985,20.3277 L343.2495,20.3277 C342.5185,20.3277 341.8155,20.616 341.3005,21.1293 C340.7825,21.6425 340.4915,22.3388 340.4915,23.0648 L340.4915,23.7155 C340.4915,25.2276 341.7265,26.4335 343.2495,26.4335 L348.3985,26.4335 C348.4375,26.4335 348.4955,26.4719 348.4955,26.5294 L348.4955,62.112 C348.4955,63.605 349.7285,64.849 351.2515,64.849 L352.6595,64.849 C353.3895,64.844 354.0875,64.554 354.6045,64.042 C355.1205,63.53 355.4115,62.837 355.4175,62.112 L355.4175,26.5294 C355.4175,26.4719 355.4555,26.4335 355.5335,26.4335 L362.7255,26.4335 C363.4545,26.4337 364.1515,26.1478 364.6695,25.6386 C365.1865,25.1294 365.4775,24.4381 365.4835,23.7155 L365.4835,23.0648 C365.4835,22.3388 365.1935,21.6425 364.6765,21.1293 C364.1595,20.616 363.4575,20.3277 362.7255,20.3277 L355.5335,20.3277 C355.4555,20.3277 355.4175,20.2894 355.4175,20.2127 L355.4175,5.704 C355.4115,4.9814 355.1205,4.2901 354.6035,3.7809 C354.0855,3.2717 353.3885,2.98599997 352.6595,2.98599997 Z M377.2675,0 C374.4305,0 372.1755,2.1055 372.1755,4.7852 C372.1755,7.3501 374.4695,9.4556 377.2675,9.4556 C380.2365,9.4556 382.4915,7.4458 382.4915,4.7852 C382.4735,2.0481 380.2365,0 377.2675,0 Z M376.7075,64.83 L377.8445,64.83 C378.6185,64.825 379.3605,64.516 379.9045,63.971 C380.4515,63.426 380.7575,62.689 380.7575,61.921 L380.7575,23.237 C380.7575,22.4687 380.4515,21.7317 379.9045,21.1866 C379.3605,20.6415 378.6185,20.3326 377.8445,20.3276334 L376.7075,20.3276334 C376.3215,20.3251 375.9395,20.3987 375.5825,20.5439 C375.2255,20.6892 374.9005,20.9035 374.6295,21.1741 C374.3565,21.4447 374.1395,21.7666 373.9935,22.1207 C373.8485,22.4747 373.7735,22.8542 373.775461,23.237 L373.775461,61.921 C373.775461,63.529 375.0865,64.83 376.7075,64.83 Z M415.2175,19.3897 C401.6415,19.3897 391.8065,29.0942 391.8065,42.4545 C391.8065,54.8195 400.4645,64.333 412.4015,65.615 C427.7705,67.299 440.7695,53.6137 438.4155,38.4923 C436.6615,27.1992 427.4425,19.3897 415.2175,19.3897 Z M415.2175,59.088 C405.7115,59.088 398.7875,52.0823 398.7875,42.4353 C398.7875,33.6496 404.7275,27.0651 413.1545,26.1464 C415.5275,25.9074 417.9265,26.1716 420.1905,26.9217 C422.4545,27.6719 424.5335,28.8907 426.2855,30.4976 C428.0395,32.1045 429.4295,34.0628 430.3645,36.2428 C431.2985,38.423 431.7555,40.775 431.7045,43.1436 C431.6835,45.2666 431.2365,47.3642 430.3955,49.3161 C429.5535,51.2679 428.3315,53.0353 426.7995,54.5169 C425.2675,55.9986 423.4555,57.1651 421.4675,57.9495 C419.4805,58.734 417.3565,59.121 415.2175,59.088 Z M223.9775,20.327518 L220.4875,20.327518 C219.9425,20.3242 219.4075,20.4513 218.9225,20.698 C218.4405,20.9445 218.0235,21.3035 217.7095,21.7441 L208.6475,35.7744 C208.6075,35.8318 208.5125,35.8318 208.4725,35.7744 L199.3135,21.7441 C199.0005,21.3022 198.5855,20.9425 198.1005,20.6958 C197.6175,20.449 197.0805,20.3227 196.5355,20.327518 L193.0455,20.327518 C192.7345,20.3267 192.4285,20.412 192.1635,20.5738 C191.8975,20.7357 191.6835,20.9677 191.5425,21.2438 C191.4025,21.5201 191.3425,21.8295 191.3695,22.1377 C191.3975,22.4458 191.5095,22.7402 191.6955,22.9882 L204.3265,41.6315 C204.3645,41.6505 204.3645,41.708 204.3265,41.7462 L189.8065,62.131 C189.6225,62.384 189.5135,62.682 189.4885,62.993 C189.4625,63.303 189.5245,63.615 189.6665,63.893 C189.8065,64.171 190.0215,64.406 190.2895,64.571 C190.5555,64.736 190.8615,64.826 191.1745,64.8300916 L194.4735,64.8300916 C195.0095,64.832 195.5395,64.708 196.0185,64.468 C196.4975,64.229 196.9125,63.881 197.2295,63.452 L208.4725,47.5651 C208.5125,47.5269 208.6075,47.5269 208.6475,47.5651 L219.6975,63.414 C220.0105,63.854 220.4255,64.213 220.9105,64.46 C221.3925,64.707 221.9305,64.834 222.4735,64.8300916 L225.8665,64.8300916 C227.2565,64.8300916 228.0475,63.299 227.2565,62.151 L212.7935,41.6505 L212.7935,41.5166 L225.3455,22.9882 C225.5335,22.739 225.6465,22.4427 225.6735,22.1329 C225.6995,21.823 225.6395,21.5121 225.4955,21.2352 C225.3535,20.9584 225.1365,20.7265 224.8665,20.5661 C224.5985,20.4058 224.2915,20.3231 223.9775,20.327518 Z" id="Shape"></path>
            </g>
        </g>
    </g>
</svg>